<?xml version="1.0" encoding="UTF-8"?>
<svg version="1.1" xmlns="http://www.w3.org/2000/svg" width="500" height="500">
<path d="M0 0 C165 0 330 0 500 0 C500 165 500 330 500 500 C335 500 170 500 0 500 C0 335 0 170 0 0 Z " fill="#FEFEFE" transform="translate(0,0)"/>
<path d="M0 0 C5.0651373 2.50562643 8.72692206 6.39134411 11.25 11.4375 C11.7759826 15.19451858 12.07762888 18.86500513 10.2734375 22.29296875 C8.01100069 25.10366479 5.73346482 27.44222434 2.25 28.4375 C-0.44077562 28.58266709 -3.05047989 28.527484 -5.75 28.4375 C-5.33427734 29.25154297 -5.33427734 29.25154297 -4.91015625 30.08203125 C-4.36681641 31.15517578 -4.36681641 31.15517578 -3.8125 32.25 C-3.27302734 33.31154297 -3.27302734 33.31154297 -2.72265625 34.39453125 C1.06695203 42.35423058 0.22974634 53.47140294 -2.3125 61.75 C-8.06448033 76.54936605 -19.39573102 90.37339125 -33.75 97.4375 C-43.33539152 101.35136455 -51.6587433 103.63028696 -62 103.6875 C-62.91652344 103.708125 -63.83304688 103.72875 -64.77734375 103.75 C-75.11917973 103.8090119 -82.66527779 100.33344109 -90.3125 93.3125 C-97.32683819 85.89288894 -99.44827954 78.85658699 -99.27368164 68.83422852 C-98.51826776 53.0752133 -90.34629085 41.48739919 -79.75 30.4375 C-79.1003125 29.72464844 -78.450625 29.01179688 -77.78125 28.27734375 C-68.58429751 18.49615862 -55.9611286 10.88915832 -42.32421875 10.0625 C-35.46869296 9.88503687 -29.30515229 10.30942579 -22.75 12.4375 C-22.75902344 11.84582031 -22.76804687 11.25414063 -22.77734375 10.64453125 C-22.65053767 7.26487354 -22.54013181 4.49908814 -20.4765625 1.7265625 C-14.34544354 -3.25317261 -7.06731466 -2.73650231 0 0 Z " fill="#EBEBEB" transform="translate(302.75,115.5625)"/>
<path d="M0 0 C5.0651373 2.50562643 8.72692206 6.39134411 11.25 11.4375 C11.7759826 15.19451858 12.07762888 18.86500513 10.2734375 22.29296875 C8.01100069 25.10366479 5.73346482 27.44222434 2.25 28.4375 C-0.44077562 28.58266709 -3.05047989 28.527484 -5.75 28.4375 C-5.33427734 29.25154297 -5.33427734 29.25154297 -4.91015625 30.08203125 C-4.36681641 31.15517578 -4.36681641 31.15517578 -3.8125 32.25 C-3.27302734 33.31154297 -3.27302734 33.31154297 -2.72265625 34.39453125 C1.06695203 42.35423058 0.22974634 53.47140294 -2.3125 61.75 C-8.06448033 76.54936605 -19.39573102 90.37339125 -33.75 97.4375 C-43.33539152 101.35136455 -51.6587433 103.63028696 -62 103.6875 C-62.91652344 103.708125 -63.83304688 103.72875 -64.77734375 103.75 C-75.11917973 103.8090119 -82.66527779 100.33344109 -90.3125 93.3125 C-97.32683819 85.89288894 -99.44827954 78.85658699 -99.27368164 68.83422852 C-98.51826776 53.0752133 -90.34629085 41.48739919 -79.75 30.4375 C-79.1003125 29.72464844 -78.450625 29.01179688 -77.78125 28.27734375 C-68.58429751 18.49615862 -55.9611286 10.88915832 -42.32421875 10.0625 C-35.46869296 9.88503687 -29.30515229 10.30942579 -22.75 12.4375 C-22.75902344 11.84582031 -22.76804687 11.25414063 -22.77734375 10.64453125 C-22.65053767 7.26487354 -22.54013181 4.49908814 -20.4765625 1.7265625 C-14.34544354 -3.25317261 -7.06731466 -2.73650231 0 0 Z M-68.75 29.4375 C-69.37003906 29.90671875 -69.99007812 30.3759375 -70.62890625 30.859375 C-72.05721285 31.98611339 -73.41322326 33.20355224 -74.75 34.4375 C-74.75 35.0975 -74.75 35.7575 -74.75 36.4375 C-75.41 36.4375 -76.07 36.4375 -76.75 36.4375 C-76.75 37.0975 -76.75 37.7575 -76.75 38.4375 C-77.41 38.4375 -78.07 38.4375 -78.75 38.4375 C-86.47206722 47.07507003 -92.53022884 59.295408 -92.9765625 70.96875 C-92.51793338 75.96622588 -90.74110823 79.62699116 -87.02734375 83.00390625 C-78.16065555 89.61156561 -66.12884129 88.15099873 -55.55859375 87.12890625 C-53.21621668 86.70404492 -51.01839772 86.15644573 -48.75 85.4375 C-47.94949219 85.19257813 -47.14898437 84.94765625 -46.32421875 84.6953125 C-33.48252639 80.18174722 -24.38923038 71.43940529 -18 59.625 C-14.16192232 51.44048999 -11.21452194 42.40653803 -13.75 33.4375 C-15.96005527 27.95046621 -19.24544968 23.99740962 -24.70703125 21.56640625 C-40.57366947 15.41403633 -55.37412488 19.04315942 -68.75 29.4375 Z " fill="#D2D2D2" transform="translate(302.75,115.5625)"/>
<path d="M0 0 C8.52745766 7.9460401 8.59456655 20.51165612 9.0078125 31.4609375 C9.35548024 45.70119065 9.71209276 60.66484699 0.75 72.5625 C-4.00287771 75.87846119 -8.62433567 76.434772 -14.25 75.5625 C-19.56746762 73.71702595 -22.60232286 70.46560582 -25.25 65.5625 C-27.09891664 60.94623161 -27.55730473 56.76891635 -27.55078125 51.84765625 C-27.55506638 51.11485947 -27.5593515 50.38206268 -27.56376648 49.62705994 C-27.56948802 48.07812526 -27.57002614 46.52916373 -27.56567383 44.98022461 C-27.56255087 42.66275303 -27.58586861 40.34660751 -27.61132812 38.02929688 C-27.66454966 26.14119408 -27.65965265 13.41347818 -20.25 3.5625 C-14.34748935 -1.89732235 -7.48236646 -3.30950824 0 0 Z " fill="#FF087B" transform="translate(459.25,227.4375)"/>
<path d="M0 0 C3.00099588 -0.10890711 5.99796378 -0.18773555 9 -0.25 C9.83917969 -0.28351563 10.67835938 -0.31703125 11.54296875 -0.3515625 C18.66974452 -0.46205515 24.01031259 1.17640634 29.25 6.125 C34.48501974 14.72538957 35.61996513 22.53996845 35.46655273 32.50463867 C35.43749076 34.5631547 35.44600309 36.61909881 35.45898438 38.67773438 C35.44196207 49.58648109 33.67217874 58.22081745 27 67 C23.45381957 70.23328215 20.32547663 71.12590499 15.5859375 71.1328125 C14.32136719 71.13474609 14.32136719 71.13474609 13.03125 71.13671875 C12.1546875 71.13285156 11.278125 71.12898438 10.375 71.125 C9.49070312 71.12886719 8.60640625 71.13273437 7.6953125 71.13671875 C6.85484375 71.13542969 6.014375 71.13414062 5.1484375 71.1328125 C4.37677246 71.13168457 3.60510742 71.13055664 2.81005859 71.12939453 C1 71 1 71 0 70 C-0.09429342 67.82194281 -0.11742538 65.6407872 -0.11352539 63.46069336 C-0.11367142 62.77779739 -0.11381744 62.09490143 -0.1139679 61.39131165 C-0.11326876 59.12412386 -0.1054764 56.85701726 -0.09765625 54.58984375 C-0.09579207 53.02185613 -0.09436817 51.45386793 -0.09336853 49.88587952 C-0.08954334 45.75123497 -0.07971306 41.61662534 -0.06866455 37.48199463 C-0.05845044 33.26599602 -0.05387091 29.04999178 -0.04882812 24.83398438 C-0.03809079 16.55597353 -0.02101436 8.2779911 0 0 Z " fill="#FF077B" transform="translate(389,230)"/>
<path d="M0 0 C0.79664062 0.00257813 1.59328125 0.00515625 2.4140625 0.0078125 C3.20554687 0.00523437 3.99703125 0.00265625 4.8125 0 C7.0390625 0.1328125 7.0390625 0.1328125 10.0390625 1.1328125 C11.95683481 1.05150344 13.87357489 0.94428441 15.7890625 0.8203125 C21.05425243 0.78847943 23.7721667 1.49901482 27.63671875 5.0390625 C31.58468935 10.93352556 32.56754042 16.96708031 32.4765625 23.9453125 C32.47261475 24.72849854 32.46866699 25.51168457 32.46459961 26.31860352 C32.30401688 32.83799346 30.81921292 38.22638851 28.0390625 44.1328125 C27.7090625 45.1228125 27.3790625 46.1128125 27.0390625 47.1328125 C27.3690625 47.7928125 27.6990625 48.4528125 28.0390625 49.1328125 C28.13535473 50.86116715 28.16981267 52.59318503 28.171875 54.32421875 C28.17380859 55.86432617 28.17380859 55.86432617 28.17578125 57.43554688 C28.17191406 58.51126953 28.16804688 59.58699219 28.1640625 60.6953125 C28.16986328 62.31469727 28.16986328 62.31469727 28.17578125 63.96679688 C28.17449219 64.99224609 28.17320312 66.01769531 28.171875 67.07421875 C28.17074707 68.01982666 28.16961914 68.96543457 28.16845703 69.93969727 C28.0390625 72.1328125 28.0390625 72.1328125 27.0390625 73.1328125 C25.04296875 73.30078125 25.04296875 73.30078125 22.6015625 73.3203125 C21.79847656 73.33449219 20.99539062 73.34867187 20.16796875 73.36328125 C18.0390625 73.1328125 18.0390625 73.1328125 16.0390625 71.1328125 C15.72021484 69.06982422 15.72021484 69.06982422 15.625 66.5625 C15.58632812 65.66660156 15.54765625 64.77070313 15.5078125 63.84765625 C15.476875 62.91050781 15.4459375 61.97335937 15.4140625 61.0078125 C15.37539062 60.06292969 15.33671875 59.11804688 15.296875 58.14453125 C15.20244904 55.80748875 15.11687856 53.47045749 15.0390625 51.1328125 C13.0590625 51.1328125 11.0790625 51.1328125 9.0390625 51.1328125 C9.04429932 51.73343506 9.04953613 52.33405762 9.05493164 52.95288086 C9.07564264 55.65868088 9.08870375 58.36446427 9.1015625 61.0703125 C9.10994141 62.01583984 9.11832031 62.96136719 9.12695312 63.93554688 C9.13017578 64.83466797 9.13339844 65.73378906 9.13671875 66.66015625 C9.14195557 67.49281006 9.14719238 68.32546387 9.15258789 69.18334961 C9.0390625 71.1328125 9.0390625 71.1328125 8.0390625 72.1328125 C6.18618748 72.20507752 4.33072372 72.2166247 2.4765625 72.1953125 C0.95869141 72.18177734 0.95869141 72.18177734 -0.58984375 72.16796875 C-1.37230469 72.15636719 -2.15476562 72.14476562 -2.9609375 72.1328125 C-2.98406274 62.89283698 -3.00185351 53.65287136 -3.01274967 44.41287327 C-3.01797811 40.12281335 -3.02507503 35.83277317 -3.03637695 31.54272461 C-3.04720725 27.4060185 -3.05321464 23.26933142 -3.05581474 19.13261223 C-3.05766874 17.55088946 -3.06128886 15.96916779 -3.06666756 14.38745308 C-3.0738799 12.17958412 -3.07492836 9.97179477 -3.07446289 7.76391602 C-3.0766835 6.50482925 -3.07890411 5.24574249 -3.08119202 3.94850159 C-2.92100588 0.19783705 -2.92100588 0.19783705 0 0 Z " fill="#FF057A" transform="translate(115.9609375,227.8671875)"/>
<path d="M0 0 C2.89905665 2.05055226 4.58944785 3.85448492 6.5625 6.8125 C7.04351807 9.91938782 7.04351807 9.91938782 7.01660156 13.4387207 C7.01718567 14.08318649 7.01776978 14.72765228 7.01837158 15.39164734 C7.01559954 17.50775272 6.98455361 19.62242405 6.953125 21.73828125 C6.94565937 23.21086355 6.93996796 24.68345583 6.93597412 26.15605164 C6.92074282 30.02128806 6.88148363 33.88591785 6.8371582 37.75091553 C6.79615082 41.69909459 6.7779515 45.64737222 6.7578125 49.59570312 C6.71498605 57.33491119 6.64676624 65.07362041 6.5625 72.8125 C2.9325 72.8125 -0.6975 72.8125 -4.4375 72.8125 C-4.4375 58.9525 -4.4375 45.0925 -4.4375 30.8125 C-7.7375 30.8125 -11.0375 30.8125 -14.4375 30.8125 C-14.4375 44.6725 -14.4375 58.5325 -14.4375 72.8125 C-18.0675 72.8125 -21.6975 72.8125 -25.4375 72.8125 C-27.17938113 71.07061887 -26.58311197 68.67210493 -26.59863281 66.30224609 C-26.60824036 65.12367035 -26.6178479 63.9450946 -26.62774658 62.73080444 C-26.63199646 61.44549835 -26.63624634 60.16019226 -26.640625 58.8359375 C-26.64632507 57.52219147 -26.65202515 56.20844543 -26.65789795 54.85488892 C-26.66842175 52.06552747 -26.67425413 49.27619493 -26.67773438 46.48681641 C-26.68319646 42.92593951 -26.70716879 39.36544941 -26.73570633 35.80469322 C-26.7589168 32.39844925 -26.76078932 28.99225641 -26.765625 25.5859375 C-26.7779718 24.31277679 -26.7903186 23.03961609 -26.80303955 21.72787476 C-26.78704435 15.34552205 -26.70200969 10.38131201 -23.4375 4.8125 C-16.60314244 -1.67137769 -8.95142183 -3.09230936 0 0 Z " fill="#FF0379" transform="translate(334.4375,228.1875)"/>
<path d="M0 0 C0.98226563 0.01160156 1.96453125 0.02320313 2.9765625 0.03515625 C3.95367187 0.04417969 4.93078125 0.05320313 5.9375 0.0625 C7.25621094 0.07990234 7.25621094 0.07990234 8.6015625 0.09765625 C11.48244359 0.13626695 11.48244359 0.13626695 13.87109375 -0.078125 C18.42648167 -0.32303833 20.9852496 -0.24972011 25.0390625 2.03515625 C31.31831857 9.53963302 31.02482242 18.23553519 30.9296875 27.62890625 C30.92781433 28.90117065 30.92594116 30.17343506 30.92401123 31.48425293 C30.91731773 34.15713407 30.9051358 36.82923332 30.8828125 39.50195312 C30.85430224 42.93302958 30.8435745 46.36386785 30.8391304 49.79505157 C30.83399227 53.07303271 30.81946245 56.35095629 30.8046875 59.62890625 C30.79831268 61.48183289 30.79831268 61.48183289 30.79180908 63.37219238 C30.78220154 64.50427124 30.77259399 65.6363501 30.76269531 66.80273438 C30.75586731 67.80373169 30.74903931 68.804729 30.74200439 69.83605957 C30.6015625 72.09765625 30.6015625 72.09765625 29.6015625 73.09765625 C27.74868748 73.16992127 25.89322372 73.18146845 24.0390625 73.16015625 C22.52119141 73.14662109 22.52119141 73.14662109 20.97265625 73.1328125 C20.19019531 73.12121094 19.40773438 73.10960937 18.6015625 73.09765625 C18.59347565 72.37768967 18.58538879 71.65772308 18.57705688 70.91593933 C18.49913226 64.13258364 18.41184802 57.34940609 18.31403542 50.56630993 C18.26407876 47.07899648 18.2177489 43.59171322 18.1796875 40.10424805 C18.13577666 36.09534548 18.0761279 32.08681173 18.015625 28.078125 C18.00407379 26.82492966 17.99252258 25.57173431 17.98062134 24.28056335 C17.96075165 23.11958633 17.94088196 21.95860931 17.92041016 20.76245117 C17.90708649 19.73874924 17.89376282 18.7150473 17.8800354 17.6603241 C17.77495838 14.85771793 17.77495838 14.85771793 15.6015625 12.09765625 C12.31080254 12.47669833 12.31080254 12.47669833 9.6015625 14.09765625 C9.48349893 15.90219282 9.43420812 17.71127163 9.41210938 19.51953125 C9.39539185 20.67743164 9.37867432 21.83533203 9.3614502 23.02832031 C9.34787476 24.28870117 9.33429932 25.54908203 9.3203125 26.84765625 C9.2921921 28.80833086 9.26406641 30.76900541 9.23561859 32.72967529 C9.18681182 36.18561663 9.14439163 39.6416365 9.1015625 43.09765625 C9.05050283 47.21782477 8.99837745 51.33795537 8.93859863 55.45800781 C8.9017449 58.0276081 8.86935296 60.59727669 8.8416748 63.16699219 C8.82495728 64.32489258 8.80823975 65.48279297 8.79101562 66.67578125 C8.77848755 67.7009082 8.76595947 68.72603516 8.75305176 69.78222656 C8.6015625 72.09765625 8.6015625 72.09765625 7.6015625 73.09765625 C5.93727199 73.19589562 4.26874319 73.22739256 2.6015625 73.22265625 C1.2403125 73.22652344 1.2403125 73.22652344 -0.1484375 73.23046875 C-2.3984375 73.09765625 -2.3984375 73.09765625 -3.3984375 72.09765625 C-3.49803902 69.89440651 -3.52643507 67.68792135 -3.52783203 65.48242188 C-3.52958435 64.79137863 -3.53133667 64.10033539 -3.53314209 63.38835144 C-3.53756004 61.09351118 -3.53462283 58.79874736 -3.53125 56.50390625 C-3.53192306 54.9158934 -3.53289309 53.32788066 -3.53414917 51.73986816 C-3.53562607 48.40746075 -3.53347186 45.07508009 -3.52880859 41.74267578 C-3.5231113 37.46167115 -3.52639035 33.1807292 -3.53238106 28.89972687 C-3.5359869 25.61931889 -3.53484798 22.33892588 -3.53225327 19.05851746 C-3.53158406 17.47958875 -3.5324122 15.90065871 -3.53473282 14.32173157 C-3.53725973 12.11874772 -3.53341825 9.91586676 -3.52783203 7.71289062 C-3.52703644 6.45682007 -3.52624084 5.20074951 -3.52542114 3.90661621 C-3.35499155 0.13660389 -3.35499155 0.13660389 0 0 Z " fill="#FF087B" transform="translate(351.3984375,227.90234375)"/>
<path d="M0 0 C0.9075 0.00257813 1.815 0.00515625 2.75 0.0078125 C4.11125 0.00394531 4.11125 0.00394531 5.5 0 C7.75 0.1328125 7.75 0.1328125 8.75 1.1328125 C8.86261344 2.83498833 8.90678394 4.54174439 8.92358398 6.24755859 C8.93707382 7.33894135 8.95056366 8.4303241 8.96446228 9.55477905 C8.97490067 10.74326447 8.98533905 11.93174988 8.99609375 13.15625 C9.02903026 15.64583687 9.06224194 18.13542012 9.09570312 20.625 C9.14317047 24.5709382 9.18758993 28.51686147 9.22680664 32.46289062 C9.26642401 36.25666912 9.31799523 40.05013967 9.37109375 43.84375 C9.3795079 45.02818695 9.38792206 46.2126239 9.39659119 47.43295288 C9.41323318 48.53063995 9.42987518 49.62832703 9.44702148 50.75927734 C9.45732895 51.7266684 9.46763641 52.69405945 9.47825623 53.69076538 C9.58929815 56.38931017 9.58929815 56.38931017 11.75 59.1328125 C13.73 59.1328125 15.71 59.1328125 17.75 59.1328125 C18.08 39.9928125 18.41 20.8528125 18.75 1.1328125 C22.38 1.1328125 26.01 1.1328125 29.75 1.1328125 C29.75 24.2328125 29.75 47.3328125 29.75 71.1328125 C24.75 71.1328125 19.75 71.1328125 14.75 71.1328125 C14.02941406 71.16761719 13.30882813 71.20242188 12.56640625 71.23828125 C7.8074056 71.41148578 4.48987391 71.43270124 0.75 68.1328125 C-2.57056833 62.6775931 -3.37428548 57.73827558 -3.37939453 51.44042969 C-3.38254669 50.32287292 -3.38569885 49.20531616 -3.38894653 48.05389404 C-3.3869223 46.85790588 -3.38489807 45.66191772 -3.3828125 44.4296875 C-3.38424759 42.57938934 -3.38424759 42.57938934 -3.38571167 40.69171143 C-3.38656518 37.42389145 -3.38254767 34.15611929 -3.37695312 30.88830566 C-3.37499594 28.87864684 -3.37695393 26.86903145 -3.38037109 24.859375 C-3.38651925 21.00779167 -3.38580908 17.15627345 -3.3828125 13.3046875 C-3.38483673 12.10060242 -3.38686096 10.89651733 -3.38894653 9.65594482 C-3.38579437 8.5509967 -3.38264221 7.44604858 -3.37939453 6.30761719 C-3.37820114 4.84131866 -3.37820114 4.84131866 -3.37698364 3.34539795 C-3.20402461 0.33172926 -3.01425299 0.17792466 0 0 Z " fill="#FF0379" transform="translate(75.25,228.8671875)"/>
<path d="M0 0 C3.71351979 2.76133523 5.9706485 5.4119455 7.4375 9.8125 C7.61562624 12.5053496 7.52477698 15.10691368 7.4375 17.8125 C6.4375 18.8125 6.4375 18.8125 4.15234375 18.91015625 C3.23582031 18.89855469 2.31929687 18.88695312 1.375 18.875 C0.45589844 18.86597656 -0.46320313 18.85695312 -1.41015625 18.84765625 C-2.12042969 18.83605469 -2.83070313 18.82445312 -3.5625 18.8125 C-4.2225 15.8425 -4.8825 12.8725 -5.5625 9.8125 C-7.20880328 9.95292877 -8.85454179 10.09999329 -10.5 10.25 C-11.41652344 10.33121094 -12.33304688 10.41242188 -13.27734375 10.49609375 C-15.52409732 10.57294976 -15.52409732 10.57294976 -16.5625 11.8125 C-16.78706217 17.08971088 -15.26402943 19.54220155 -11.75 23.4375 C-10.03124306 25.23915518 -8.30089372 27.02978463 -6.5625 28.8125 C-4.94577637 30.51887372 -3.33877273 32.23366396 -1.73754883 33.95458984 C-0.68058118 35.09045001 0.38191194 36.22119901 1.45043945 37.34619141 C6.54300744 42.78329362 7.73777157 45.69971154 7.8125 53.1875 C7.84085938 54.47398437 7.86921875 55.76046875 7.8984375 57.0859375 C7.36542917 61.3951743 6.15107628 63.4670621 3.4375 66.8125 C-3.00612784 71.77946313 -8.59507634 72.49433974 -16.5625 71.8125 C-21.75260925 70.04982139 -24.38609651 67.22417151 -27.5625 62.8125 C-29.38310452 59.06456586 -29.78748579 56.1494102 -29.6875 52 C-29.66945312 51.02417969 -29.65140625 50.04835938 -29.6328125 49.04296875 C-29.60960937 48.30691406 -29.58640625 47.57085937 -29.5625 46.8125 C-26.5925 46.8125 -23.6225 46.8125 -20.5625 46.8125 C-20.15 48.215 -19.7375 49.6175 -19.3125 51.0625 C-18.02813626 54.85585338 -17.02350846 57.53812302 -13.5625 59.8125 C-10.39014724 60.26569325 -8.49762264 60.34240283 -5.6875 58.75 C-4.36237185 56.46783485 -3.77722049 54.54798889 -3.89453125 51.89453125 C-5.76409538 46.06717638 -11.65141004 41.64239987 -15.953125 37.5234375 C-23.21915365 30.52926706 -28.84092895 24.4987924 -29.125 14 C-29.04048989 9.37447983 -28.29707593 6.57089059 -25.5625 2.8125 C-18.30536129 -2.39775343 -8.33891106 -2.77963702 0 0 Z " fill="#FF067A" transform="translate(215.5625,230.1875)"/>
<path d="M0 0 C1.73431274 0.00616333 1.73431274 0.00616333 3.50366211 0.01245117 C4.75598633 0.01438477 6.00831055 0.01631836 7.29858398 0.01831055 C9.26988281 0.03667969 9.26988281 0.03667969 11.28100586 0.05541992 C12.59907227 0.05606445 13.91713867 0.05670898 15.27514648 0.05737305 C25.07841463 0.1028287 25.07841463 0.1028287 26.21850586 1.24291992 C26.35131836 3.05541992 26.35131836 3.05541992 26.34350586 5.24291992 C26.34737305 6.32573242 26.34737305 6.32573242 26.35131836 7.43041992 C26.21850586 9.24291992 26.21850586 9.24291992 25.21850586 10.24291992 C23.87835365 10.39874296 22.53091683 10.49336134 21.18334961 10.55932617 C20.37446289 10.6012207 19.56557617 10.64311523 18.73217773 10.6862793 C17.45697266 10.74525391 17.45697266 10.74525391 16.15600586 10.80541992 C14.875 10.87019531 14.875 10.87019531 13.56811523 10.9362793 C11.45178549 11.04268694 9.33516773 11.14333723 7.21850586 11.24291992 C7.21850586 15.20291992 7.21850586 19.16291992 7.21850586 23.24291992 C8.5784668 23.23131836 9.93842773 23.2197168 11.33959961 23.20776367 C13.11173366 23.1983873 14.88386919 23.18928694 16.65600586 23.18041992 C18.00275391 23.16785156 18.00275391 23.16785156 19.37670898 23.1550293 C20.23071289 23.15180664 21.0847168 23.14858398 21.96459961 23.14526367 C23.15073853 23.13740845 23.15073853 23.13740845 24.36083984 23.12939453 C26.21850586 23.24291992 26.21850586 23.24291992 27.21850586 24.24291992 C27.35131836 26.05541992 27.35131836 26.05541992 27.34350586 28.24291992 C27.34737305 29.32573242 27.34737305 29.32573242 27.35131836 30.43041992 C27.21850586 32.24291992 27.21850586 32.24291992 26.21850586 33.24291992 C24.80280463 33.32943603 23.38291086 33.34996896 21.96459961 33.34057617 C21.19559326 33.33807861 20.42658691 33.33558105 19.63427734 33.33300781 C18.65144775 33.32390381 17.66861816 33.3147998 16.65600586 33.30541992 C13.54163086 33.28479492 10.42725586 33.26416992 7.21850586 33.24291992 C7.21850586 42.81291992 7.21850586 52.38291992 7.21850586 62.24291992 C13.81850586 62.24291992 20.41850586 62.24291992 27.21850586 62.24291992 C27.21850586 65.21291992 27.21850586 68.18291992 27.21850586 71.24291992 C25.33531318 73.12611261 22.09920449 72.37346277 19.59350586 72.37573242 C18.93141113 72.37668915 18.26931641 72.37764587 17.5871582 72.37863159 C16.18497625 72.37931319 14.78279116 72.37746034 13.38061523 72.37329102 C11.22754873 72.36794239 9.07469084 72.37323662 6.92163086 72.37963867 C5.5622554 72.37897789 4.20288006 72.37769672 2.84350586 72.37573242 C1.59827148 72.37460449 0.35303711 72.37347656 -0.92993164 72.37231445 C-3.78149414 72.24291992 -3.78149414 72.24291992 -4.78149414 71.24291992 C-4.8862832 69.1063495 -4.92006068 66.96627655 -4.92675781 64.82714844 C-4.93011642 64.15721863 -4.93347504 63.48728882 -4.93693542 62.79705811 C-4.94647135 60.57196218 -4.94838986 58.34694129 -4.94946289 56.12182617 C-4.95267367 54.58104928 -4.9560376 53.0402727 -4.95954895 51.49949646 C-4.96554686 48.26544487 -4.96738818 45.03142004 -4.96679688 41.79736328 C-4.96669522 37.64644472 -4.98034768 33.49569709 -4.99756908 29.34481907 C-5.00866954 26.16130277 -5.01071669 22.97782804 -5.01018715 19.79429436 C-5.01137021 18.26363473 -5.01581017 16.73297412 -5.02351952 15.20233345 C-5.03328013 13.06412804 -5.0304572 10.92629694 -5.02441406 8.78808594 C-5.02583908 7.56976578 -5.0272641 6.35144562 -5.0287323 5.09620667 C-4.69148656 1.20417472 -3.90282161 0.3408503 0 0 Z " fill="#FF0A7D" transform="translate(273.781494140625,228.757080078125)"/>
<path d="M0 0 C1.63340544 0.00063635 1.63340544 0.00063635 3.29980898 0.00128555 C30.97071474 0.01225085 58.64160877 0.03213389 86.3125 0.0625 C85.9825 1.3825 85.6525 2.7025 85.3125 4.0625 C47.8776503 4.2311808 10.44277905 4.394734 -26.99211413 4.55345565 C-29.11859821 4.56247285 -31.24508225 4.57149927 -33.3715663 4.58052588 C-172.14857025 5.16925543 -172.14857025 5.16925543 -239.5 5.125 C-240.50000857 5.12436365 -240.50000857 5.12436365 -241.52021933 5.12371445 C-257.24266442 5.11352364 -272.96508506 5.09506626 -288.6875 5.0625 C-288.3575 3.7425 -288.0275 2.4225 -287.6875 1.0625 C-261.91674237 0.88368844 -236.1459053 0.71854376 -210.375 0.5625 C-209.3949007 0.55655146 -208.4148014 0.55060292 -207.40500212 0.54447412 C-138.26973054 0.125801 -69.13648872 -0.02774489 0 0 Z " fill="#251818" transform="translate(350.6875,323.9375)"/>
<path d="M0 0 C5.0651373 2.50562643 8.72692206 6.39134411 11.25 11.4375 C11.7759826 15.19451858 12.07762888 18.86500513 10.2734375 22.29296875 C8.01100069 25.10366479 5.73346482 27.44222434 2.25 28.4375 C-0.44077562 28.58266709 -3.05047989 28.527484 -5.75 28.4375 C-5.33427734 29.25154297 -5.33427734 29.25154297 -4.91015625 30.08203125 C-4.36681641 31.15517578 -4.36681641 31.15517578 -3.8125 32.25 C-3.27302734 33.31154297 -3.27302734 33.31154297 -2.72265625 34.39453125 C1.06695203 42.35423058 0.22974634 53.47140294 -2.3125 61.75 C-8.06448033 76.54936605 -19.39573102 90.37339125 -33.75 97.4375 C-43.33539152 101.35136455 -51.6587433 103.63028696 -62 103.6875 C-62.91652344 103.708125 -63.83304688 103.72875 -64.77734375 103.75 C-75.11917973 103.8090119 -82.66527779 100.33344109 -90.3125 93.3125 C-97.32683819 85.89288894 -99.44827954 78.85658699 -99.27368164 68.83422852 C-98.51826776 53.0752133 -90.34629085 41.48739919 -79.75 30.4375 C-79.1003125 29.72464844 -78.450625 29.01179688 -77.78125 28.27734375 C-68.58429751 18.49615862 -55.9611286 10.88915832 -42.32421875 10.0625 C-35.46869296 9.88503687 -29.30515229 10.30942579 -22.75 12.4375 C-22.75902344 11.84582031 -22.76804687 11.25414063 -22.77734375 10.64453125 C-22.65053767 7.26487354 -22.54013181 4.49908814 -20.4765625 1.7265625 C-14.34544354 -3.25317261 -7.06731466 -2.73650231 0 0 Z M-87.96484375 42.58984375 C-94.41042973 52.87175224 -99.61564308 65.11753265 -97.75 77.4375 C-96.40327249 80.09561815 -94.89448731 82.31504286 -93.0625 84.66015625 C-91.75 86.4375 -91.75 86.4375 -91.75 88.4375 C-91.09 88.4375 -90.43 88.4375 -89.75 88.4375 C-89.481875 89.076875 -89.21375 89.71625 -88.9375 90.375 C-87.86332248 92.76881686 -87.86332248 92.76881686 -84.75 93.4375 C-84.75 94.0975 -84.75 94.7575 -84.75 95.4375 C-84.09 95.4375 -83.43 95.4375 -82.75 95.4375 C-82.42 96.4275 -82.09 97.4175 -81.75 98.4375 C-72.94424655 103.04856879 -62.31747418 104.18145363 -52.734375 101.63671875 C-50.0282614 100.65783129 -47.39886619 99.56038893 -44.75 98.4375 C-43.23300431 97.96662046 -41.71224117 97.50766045 -40.1875 97.0625 C-24.91010982 91.98822398 -14.13085174 80.16724953 -6.875 66.1875 C-1.96490004 55.63987786 -1.29793682 45.71389106 -4.80078125 34.59375 C-5.84200222 32.22850731 -7.1504269 30.4603698 -8.75 28.4375 C-10.27118754 26.14090192 -11.49157431 23.90940761 -12.75 21.4375 C-12.42 20.4475 -12.09 19.4575 -11.75 18.4375 C-9.6875 17.75 -9.6875 17.75 -7.75 17.4375 C-9.47855926 15.29182087 -9.47855926 15.29182087 -11.75 13.4375 C-13.9435345 13.4228761 -13.9435345 13.4228761 -15.75 14.4375 C-16.08 15.0975 -16.41 15.7575 -16.75 16.4375 C-17.77738281 16.14875 -18.80476563 15.86 -19.86328125 15.5625 C-48.34784058 7.80307971 -70.39772494 19.65188607 -87.96484375 42.58984375 Z " fill="#1B1B1B" transform="translate(302.75,115.5625)"/>
<path d="M0 0 C1.28487305 0.00616333 1.28487305 0.00616333 2.59570312 0.01245117 C3.52769531 0.01438477 4.4596875 0.01631836 5.41992188 0.01831055 C6.88365234 0.03667969 6.88365234 0.03667969 8.37695312 0.05541992 C9.35277344 0.05606445 10.32859375 0.05670898 11.33398438 0.05737305 C18.59626116 0.10257394 18.59626116 0.10257394 20.87695312 1.24291992 C21.07226562 7.29760742 21.07226562 7.29760742 20.87695312 9.24291992 C20.21695313 9.90291992 19.55695313 10.56291992 18.87695312 11.24291992 C17.22695312 11.24291992 15.57695312 11.24291992 13.87695312 11.24291992 C13.87695312 28.07291992 13.87695312 44.90291992 13.87695312 62.24291992 C15.85695312 62.24291992 17.83695313 62.24291992 19.87695312 62.24291992 C20.87695312 63.24291992 20.87695312 63.24291992 21.00976562 65.05541992 C21.0071875 65.77729492 21.00460938 66.49916992 21.00195312 67.24291992 C21.00582031 68.32573242 21.00582031 68.32573242 21.00976562 69.43041992 C20.87695312 71.24291992 20.87695312 71.24291992 19.87695312 72.24291992 C18.18136587 72.34224146 16.48169565 72.37371999 14.78320312 72.37573242 C13.75324219 72.37702148 12.72328125 72.37831055 11.66210938 72.37963867 C10.03595703 72.37383789 10.03595703 72.37383789 8.37695312 72.36791992 C7.29285156 72.37178711 6.20875 72.3756543 5.09179688 72.37963867 C4.06183594 72.37834961 3.031875 72.37706055 1.97070312 72.37573242 C1.01873047 72.37460449 0.06675781 72.37347656 -0.9140625 72.37231445 C-3.12304688 72.24291992 -3.12304688 72.24291992 -4.12304688 71.24291992 C-4.25585938 69.43041992 -4.25585938 69.43041992 -4.24804688 67.24291992 C-4.250625 66.52104492 -4.25320312 65.79916992 -4.25585938 65.05541992 C-4.12304688 63.24291992 -4.12304688 63.24291992 -3.12304688 62.24291992 C-1.14304688 62.24291992 0.83695313 62.24291992 2.87695312 62.24291992 C2.87695312 45.41291992 2.87695312 28.58291992 2.87695312 11.24291992 C0.89695313 11.24291992 -1.08304688 11.24291992 -3.12304688 11.24291992 C-5.0179364 9.3480304 -4.30323799 6.67152847 -4.35351562 4.15307617 C-4.00114978 1.23262027 -2.87151912 0.32856043 0 0 Z " fill="#FF067B" transform="translate(159.123046875,228.757080078125)"/>
<path d="M0 0 C10.56 0 21.12 0 32 0 C32 3.3 32 6.6 32 10 C28.7 10 25.4 10 22 10 C22.00444122 10.73471527 22.00888245 11.46943054 22.01345825 12.22640991 C22.05349276 19.14235368 22.08396288 26.05828017 22.10362434 32.97430992 C22.11407224 36.53012399 22.12824959 40.0858425 22.15087891 43.64160156 C22.17671832 47.727223 22.18646444 51.81274369 22.1953125 55.8984375 C22.20563507 57.17866791 22.21595764 58.45889832 22.22659302 59.77792358 C22.22674408 60.95899689 22.22689514 62.14007019 22.22705078 63.35693359 C22.231492 64.40062103 22.23593323 65.44430847 22.24050903 66.5196228 C22 69 22 69 20 71 C17.87109375 71.23046875 17.87109375 71.23046875 15.4375 71.1875 C14.63183594 71.18105469 13.82617188 71.17460937 12.99609375 71.16796875 C11 71 11 71 10 70 C9.90613619 68.1281906 9.88256196 66.2528194 9.88647461 64.37866211 C9.88655014 63.17749252 9.88662567 61.97632294 9.88670349 60.73875427 C9.89186478 59.4314888 9.89702606 58.12422333 9.90234375 56.77734375 C9.90420802 55.43355868 9.90563188 54.08977293 9.90663147 52.74598694 C9.91045598 49.20317723 9.92028568 45.6604083 9.93133545 42.11761475 C9.94155101 38.50484773 9.9461294 34.89207416 9.95117188 31.27929688 C9.96190802 24.1861812 9.97898364 17.09309326 10 10 C9.36191406 10.01160156 8.72382813 10.02320313 8.06640625 10.03515625 C6.82697266 10.04869141 6.82697266 10.04869141 5.5625 10.0625 C4.32693359 10.07990234 4.32693359 10.07990234 3.06640625 10.09765625 C1 10 1 10 0 9 C0 6.03 0 3.06 0 0 Z " fill="#FF077B" transform="translate(230,230)"/>
<path d="M0 0 C1.34888732 0.00015905 2.69778075 0.00584927 4.04663086 0.01586914 C5.10991859 0.01799156 5.10991859 0.01799156 6.19468689 0.02015686 C8.46699173 0.02577096 10.73919936 0.03832576 13.01147461 0.05102539 C14.54858257 0.05603858 16.08569206 0.0606018 17.62280273 0.06469727 C21.39823103 0.07574497 25.17358632 0.09301898 28.94897461 0.11352539 C28.97586677 1.59259431 28.99532082 3.07180022 29.01147461 4.55102539 C29.02307617 5.37473633 29.03467773 6.19844727 29.04663086 7.04711914 C28.94897461 9.11352539 28.94897461 9.11352539 27.94897461 10.11352539 C26.26288495 10.1855805 24.57396802 10.19738607 22.88647461 10.17602539 C21.96737305 10.16700195 21.04827148 10.15797852 20.10131836 10.14868164 C19.39104492 10.13708008 18.68077148 10.12547852 17.94897461 10.11352539 C17.95119522 10.86298935 17.95341583 11.61245331 17.95570374 12.3846283 C17.9757064 19.4333483 17.99094861 26.48205854 18.00078678 33.53079891 C18.00601463 37.15498499 18.01311048 40.77914769 18.02441406 44.40332031 C18.03524645 47.89812514 18.04125219 51.39290743 18.04385185 54.88772774 C18.04661012 56.87591928 18.05442149 58.8641017 18.06227112 60.85227966 C18.06238441 62.65403404 18.06238441 62.65403404 18.0625 64.4921875 C18.06472061 65.55586044 18.06694122 66.61953339 18.06922913 67.71543884 C17.94897461 70.11352539 17.94897461 70.11352539 16.94897461 71.11352539 C15.45159337 71.21143109 13.94954569 71.24327403 12.44897461 71.23852539 C11.63428711 71.24110352 10.81959961 71.24368164 9.98022461 71.24633789 C7.94897461 71.11352539 7.94897461 71.11352539 6.94897461 70.11352539 C6.8551108 68.24171599 6.83153657 66.36634479 6.83544922 64.4921875 C6.83552475 63.29101791 6.83560028 62.08984833 6.8356781 60.85227966 C6.84083939 59.54501419 6.84600067 58.23774872 6.85131836 56.89086914 C6.85318263 55.54708407 6.85460649 54.20329832 6.85560608 52.85951233 C6.85943059 49.31670263 6.86926029 45.77393369 6.88031006 42.23114014 C6.89052562 38.61837312 6.89510401 35.00559955 6.90014648 31.39282227 C6.91088263 24.29970659 6.92795825 17.20661865 6.94897461 10.11352539 C6.23870117 10.12512695 5.52842773 10.13672852 4.79663086 10.14868164 C3.8775293 10.15770508 2.95842773 10.16672852 2.01147461 10.17602539 C1.09495117 10.18762695 0.17842773 10.19922852 -0.76586914 10.21118164 C-3.05102539 10.11352539 -3.05102539 10.11352539 -4.05102539 9.11352539 C-4.18383789 7.30102539 -4.18383789 7.30102539 -4.17602539 5.11352539 C-4.17860352 4.39165039 -4.18118164 3.66977539 -4.18383789 2.92602539 C-3.95259093 -0.22981546 -3.21777646 0.11973002 0 0 Z " fill="#FF0379" transform="translate(36.051025390625,229.886474609375)"/>
<path d="M0 0 C1.65 0 3.3 0 5 0 C7.83849205 5.61318721 8.43314017 10.01405181 8.36328125 16.2578125 C8.36377975 17.1238913 8.36427826 17.98997009 8.36479187 18.8822937 C8.36246312 20.70263987 8.35280586 22.52298998 8.33618164 24.34326172 C8.31251136 27.12366576 8.31563959 29.90311394 8.32226562 32.68359375 C8.31669046 34.45833903 8.30958159 36.23308029 8.30078125 38.0078125 C8.30214836 39.24859055 8.30214836 39.24859055 8.30354309 40.51443481 C8.23801818 45.86158596 7.96066447 50.03933553 4 54 C1.5625 54.375 1.5625 54.375 -1 54 C-7.79813849 46.95907085 -5.25477245 34.15518845 -5.09765625 25.13671875 C-4.82281073 16.30868076 -4.35368735 7.86049306 0 0 Z " fill="#FFF8FB" transform="translate(448,237)"/>
<path d="M0 0 C6 1 6 1 8.1875 3 C12.4776744 10.10097832 13.52920813 17.11815337 13.4375 25.3125 C13.43282715 26.22878174 13.4281543 27.14506348 13.42333984 28.08911133 C13.25841575 35.67494933 12.64481588 44.35518412 7 50 C4.69 50 2.38 50 0 50 C0 33.5 0 17 0 0 Z " fill="#FFF8FB" transform="translate(401,239)"/>
<path d="M0 0 C42.57 0 85.14 0 129 0 C128.67 1.32 128.34 2.64 128 4 C86.09 4 44.18 4 1 4 C0.67 2.68 0.34 1.36 0 0 Z " fill="#291D1D" transform="translate(62,186)"/>
<path d="M0 0 C41.91 0 83.82 0 127 0 C127 1.32 127 2.64 127 4 C85.09 4 43.18 4 0 4 C0 2.68 0 1.36 0 0 Z " fill="#1B0E0E" transform="translate(309,184)"/>
<path d="M0 0 C0.55586014 2.84106296 0.72670764 4.24047504 0 7 C-2.04087227 9.7298847 -4.29241486 12.10822448 -6.6640625 14.5546875 C-9.48983966 17.5127753 -11.71834201 20.61431395 -14 24 C-11.98650475 28.75715911 -8.39232868 32.04348655 -4.8984375 35.7578125 C-3 38 -3 38 -3 40 C-8.01897047 39.28300422 -11.31197028 37.09721932 -15.5 34.375 C-18.2222648 32.87775436 -19.88225856 32.05204121 -23 32 C-25.31575068 33.35060164 -27.1474927 34.62373405 -29.1875 36.3125 C-29.75122314 36.76093262 -30.31494629 37.20936523 -30.89575195 37.67138672 C-35.63283534 41.5142896 -39.89630203 45.71947024 -44.07421875 50.1640625 C-46 52 -46 52 -48 52 C-44.15000727 41.93078825 -38.90097183 36.42684569 -30.3125 30.1875 C-29.29833008 29.43436523 -29.29833008 29.43436523 -28.26367188 28.66601562 C-23.25095663 25 -23.25095663 25 -21 25 C-21 24.34 -21 23.68 -21 23 C-25.10223585 21.98459888 -25.10223585 21.98459888 -29 23 C-29.33 22.01 -29.66 21.02 -30 20 C-30.99 20.33 -31.98 20.66 -33 21 C-35.31 18.36 -37.62 15.72 -40 13 C-39.67 12.34 -39.34 11.68 -39 11 C-33 13 -27 15 -21 17 C-21 18.32 -21 19.64 -21 21 C-20.01 21 -19.02 21 -18 21 C-16.22341763 18.97428087 -14.63948412 16.98466088 -13.0625 14.8125 C-12.19960569 13.65205593 -11.33632939 12.49189579 -10.47265625 11.33203125 C-9.85221436 10.49019287 -9.85221436 10.49019287 -9.21923828 9.63134766 C-7.53407555 7.37659047 -5.77379735 5.18535125 -4 3 C-4.99 2.67 -5.98 2.34 -7 2 C-4.35261084 0.5393715 -3.10551666 0 0 0 Z " fill="#0E0E0E" transform="translate(272,142)"/>
<path d="M0 0 C0.99 0.33 1.98 0.66 3 1 C2.25556641 1.70962891 2.25556641 1.70962891 1.49609375 2.43359375 C-10.19701743 13.81607199 -19.62467305 27.40231416 -20.4375 44.25 C-20.42900109 50.51369362 -17.91002642 54.28702173 -14 59 C-14.33 59.66 -14.66 60.32 -15 61 C-14.34 61 -13.68 61 -13 61 C-10.375 63.375 -10.375 63.375 -8 66 C-8 66.66 -8 67.32 -8 68 C-7.34 68 -6.68 68 -6 68 C-5.505 68.99 -5.505 68.99 -5 70 C6.36081379 75.45159891 18.07792934 75.29426276 29.98828125 71.8515625 C32.18037138 71.18037503 32.18037138 71.18037503 33 69 C34.66352765 68.65133879 36.33095982 68.32123786 38 68 C53.4148299 61.66397336 62.68021681 51.31284703 69.9921875 36.484375 C72.30012207 30.79504791 73.40050582 25.11380791 74.125 19.0625 C74.25455078 18.03672852 74.25455078 18.03672852 74.38671875 16.99023438 C74.59602285 15.32742954 74.79871722 13.66379487 75 12 C75.33 12 75.66 12 76 12 C76.84104793 30.40960469 72.17852125 43.27554514 59.75 57.25 C50.46573735 67.24122652 36.65755962 75.16695655 22.74511719 76.16113281 C20.07994943 76.2068457 17.41552658 76.23525296 14.75 76.25 C13.83347656 76.270625 12.91695312 76.29125 11.97265625 76.3125 C1.63082027 76.3715119 -5.91527779 72.89594109 -13.5625 65.875 C-20.57683819 58.45538894 -22.69827954 51.41908699 -22.52368164 41.39672852 C-21.6959638 24.12934917 -11.86025907 11.70965261 0 0 Z " fill="#262626" transform="translate(226,143)"/>
<path d="M0 0 C3.3 0 6.6 0 10 0 C14.03642979 7.06375214 14.3634481 15.57242776 12.390625 23.42578125 C11.31953342 26.06525692 10.6018 27.6991 8 29 C4.4375 29.125 4.4375 29.125 1 29 C0 28 0 28 -0.11352539 25.31616211 C-0.10828857 24.14835205 -0.10305176 22.98054199 -0.09765625 21.77734375 C-0.09443359 20.51728516 -0.09121094 19.25722656 -0.08789062 17.95898438 C-0.07953403 16.61848891 -0.07106907 15.27799412 -0.0625 13.9375 C-0.0574866 12.59310058 -0.05292342 11.2486994 -0.04882812 9.90429688 C-0.03699488 6.60282059 -0.02050971 3.30143197 0 0 Z " fill="#FFF2F8" transform="translate(124,239)"/>
<path d="M0 0 C0.99 0.33 1.98 0.66 3 1 C3 1.99 3 2.98 3 4 C5.97 4.495 5.97 4.495 9 5 C9 5.66 9 6.32 9 7 C7.50292969 8.26513672 7.50292969 8.26513672 5.421875 9.6796875 C4.67292969 10.19660156 3.92398438 10.71351563 3.15234375 11.24609375 C2.35957031 11.78363281 1.56679687 12.32117188 0.75 12.875 C-7.53574374 18.46704886 -7.53574374 18.46704886 -14 26 C-18.57142857 30 -18.57142857 30 -21 30 C-19.94177958 24.27238198 -16.16330397 19.7654969 -13 15 C-12.22514727 13.79694787 -11.45041081 12.59382084 -10.67578125 11.390625 C-9.88924997 10.19710576 -9.10150898 9.00438274 -8.3125 7.8125 C-7.94447266 7.2357251 -7.57644531 6.6589502 -7.19726562 6.06469727 C-6.11328125 4.45703125 -6.11328125 4.45703125 -4 2 C-2.68 2 -1.36 2 0 2 C0 1.34 0 0.68 0 0 Z " fill="#C8C8C8" transform="translate(242,160)"/>
<path d="M0 0 C3.03137229 0.65006855 5.52773116 1.72061657 8.3125 3.0625 C18.70312747 7.27987232 31.09329271 5.02997573 42 4 C38.5647952 6.29013653 37.014669 6.17842973 33 6 C32.67 7.32 32.34 8.64 32 10 C31.34 9.67 30.68 9.34 30 9 C30.33 8.34 30.66 7.68 31 7 C29.02 7 27.04 7 25 7 C25 7.99 25 8.98 25 10 C26.32 9.67 27.64 9.34 29 9 C28.01 9.495 28.01 9.495 27 10 C28.10709491 12.06295292 28.10709491 12.06295292 30 14 C33.10197397 14.80946422 33.10197397 14.80946422 36 15 C36 15.33 36 15.66 36 16 C26.8667915 16.48638388 18.28252856 16.33708588 10 12 C9.67 11.01 9.34 10.02 9 9 C8.34 9 7.68 9 7 9 C7 8.34 7 7.68 7 7 C6.360625 6.731875 5.72125 6.46375 5.0625 6.1875 C3 5 3 5 2 2 C1.34 2 0.68 2 0 2 C0 1.34 0 0.68 0 0 Z " fill="#CFCFCF" transform="translate(211,202)"/>
<path d="M0 0 C5.98522489 2.41210568 9.71337981 5.44629087 12.6484375 11.31640625 C13.03325807 15.39550431 13.08965607 17.60730498 10.8984375 21.12890625 C7.57468222 24.36033499 5.86489315 25.20581937 1.2109375 25.62890625 C-2.52859356 25.30087721 -4.35279019 24.49733157 -7.3515625 22.31640625 C-7.0215625 20.99640625 -6.6915625 19.67640625 -6.3515625 18.31640625 C-5.6503125 18.81140625 -4.9490625 19.30640625 -4.2265625 19.81640625 C-0.89854396 21.55276375 0.94795004 21.87952391 4.6484375 21.31640625 C6.80323617 19.97484842 6.80323617 19.97484842 7.6484375 17.31640625 C7.83989456 14.15446393 7.57930524 11.34869397 6.6484375 8.31640625 C3.88239205 5.47943656 1.34896175 3.43992406 -2.6640625 3.1484375 C-3.994375 3.13876953 -3.994375 3.13876953 -5.3515625 3.12890625 C-6.2384375 3.11472656 -7.1253125 3.10054688 -8.0390625 3.0859375 C-10.54676234 3.08927499 -10.54676234 3.08927499 -12.3515625 5.31640625 C-12.59369123 7.29769133 -12.59369123 7.29769133 -12.4765625 9.44140625 C-12.4353125 10.72015625 -12.3940625 11.99890625 -12.3515625 13.31640625 C-13.6715625 13.64640625 -14.9915625 13.97640625 -16.3515625 14.31640625 C-17.01781156 11.28860113 -17.48681772 8.42207425 -17.3515625 5.31640625 C-12.61850743 -0.82377331 -7.34998941 -2.13662483 0 0 Z " fill="#ECECEC" transform="translate(299.3515625,116.68359375)"/>
<path d="M0 0 C0.33 0 0.66 0 1 0 C1.8411882 18.41267513 -2.82433108 31.27112246 -15.25 45.25 C-22.61786125 53.21662683 -31.57954837 58.86997628 -42 62 C-42.99 62 -43.98 62 -45 62 C-45 61.01 -45 60.02 -45 59 C-44.34 59 -43.68 59 -43 59 C-42.67 58.34 -42.34 57.68 -42 57 C-40.33647235 56.65133879 -38.66904018 56.32123786 -37 56 C-21.5851701 49.66397336 -12.31978319 39.31284703 -5.0078125 24.484375 C-2.69987793 18.79504791 -1.59949418 13.11380791 -0.875 7.0625 C-0.78863281 6.37865234 -0.70226562 5.69480469 -0.61328125 4.99023438 C-0.40397715 3.32742954 -0.20128278 1.66379487 0 0 Z " fill="#2A2A2A" transform="translate(301,155)"/>
<path d="M0 0 C0.5775 0.185625 1.155 0.37125 1.75 0.5625 C4.20692525 1.04023546 5.64397534 0.75729364 8 0 C7.47731534 2.76276177 6.89130413 5.3260876 6 8 C1.02244694 10.87591954 -3.04531501 12.14639243 -8.75 12.0625 C-9.54921875 12.05347656 -10.3484375 12.04445312 -11.171875 12.03515625 C-11.77515625 12.02355469 -12.3784375 12.01195312 -13 12 C-13.66 10.35 -14.32 8.7 -15 7 C-15.99 7.33 -16.98 7.66 -18 8 C-17.67 6.68 -17.34 5.36 -17 4 C-15.02 4 -13.04 4 -11 4 C-10.67 4.66 -10.34 5.32 -10 6 C-9.67 5.01 -9.34 4.02 -9 3 C-4.545 2.505 -4.545 2.505 0 2 C0 1.34 0 0.68 0 0 Z " fill="#C2C2C2" transform="translate(253,205)"/>
<path d="M0 0 C4.80436782 -0.38434943 8.09024857 -0.47968712 12.4375 1.8125 C15 4 15 4 17 7 C16.43396226 13.56603774 16.43396226 13.56603774 15 15 C12.66702567 15.04092937 10.33294775 15.04241723 8 15 C7.7525 14.236875 7.505 13.47375 7.25 12.6875 C5.86694005 9.71392111 4.76995517 8.67876071 2 7 C1.01 6.67 0.02 6.34 -1 6 C-0.67 4.02 -0.34 2.04 0 0 Z " fill="#F6F6F6" transform="translate(289,121)"/>
<path d="M0 0 C-0.60134766 0.54914063 -0.60134766 0.54914063 -1.21484375 1.109375 C-6.89628603 6.52027241 -11.41281293 12.6653131 -16 19 C-17.32 18.67 -18.64 18.34 -20 18 C-19.67 17.01 -19.34 16.02 -19 15 C-20.65 14.67 -22.3 14.34 -24 14 C-24.33 13.01 -24.66 12.02 -25 11 C-5.05974653 -2.52987326 -5.05974653 -2.52987326 0 0 Z " fill="#E0E0E0" transform="translate(270,145)"/>
<path d="M0 0 C0.66 0.33 1.32 0.66 2 1 C2.33 0.67 2.66 0.34 3 0 C4.125 1.6875 4.125 1.6875 5 4 C3.74486256 8.27622408 1.43043211 11.2715835 -1.375 14.6875 C-2.53128906 16.11642578 -2.53128906 16.11642578 -3.7109375 17.57421875 C-5.78674285 19.77400564 -7.22095709 20.91503119 -10 22 C-10 19.69 -10 17.38 -10 15 C-10.66 14.67 -11.32 14.34 -12 14 C-10.88200014 12.66079162 -9.75538103 11.32877444 -8.625 10 C-7.68527344 8.88625 -7.68527344 8.88625 -6.7265625 7.75 C-6.15679687 7.1725 -5.58703125 6.595 -5 6 C-4.34 6 -3.68 6 -3 6 C-2.690625 5.195625 -2.38125 4.39125 -2.0625 3.5625 C-1 1 -1 1 0 0 Z " fill="#F1F1F1" transform="translate(288,181)"/>
<path d="M0 0 C4.41884299 2.16925019 7.05081082 4.45189192 9 9 C9.55745995 12.8225825 9.28468943 14.4963187 7.375 17.875 C5 20 5 20 2.0625 20.5 C-1.26562912 19.95663198 -3.26320847 18.93185285 -6 17 C-6.66 18.32 -7.32 19.64 -8 21 C-8.66 19.68 -9.32 18.36 -10 17 C-9.34 17 -8.68 17 -8 17 C-8 16.34 -8 15.68 -8 15 C-7.01 14.67 -6.02 14.34 -5 14 C-5.33 13.01 -5.66 12.02 -6 11 C-7.98 11 -9.96 11 -12 11 C-13.39935013 8.20129973 -13.25265405 6.09501208 -13 3 C-9.74722549 -1.45556894 -5.01100544 -0.7024774 0 0 Z M-10 2 C-10.33 3.98 -10.66 5.96 -11 8 C-9.576875 8.680625 -9.576875 8.680625 -8.125 9.375 C-5 11 -5 11 -3 13 C-2.375 15.125 -2.375 15.125 -2 17 C1.41642759 17.25015873 1.41642759 17.25015873 5 17 C7.32877362 14.12405164 7.32877362 14.12405164 6.9375 10.5625 C5.82990404 6.35363535 4.61079978 5.28977547 1 3 C-1.40545638 1.79727181 -2.94996953 1.89928528 -5.625 1.9375 C-6.44226563 1.94652344 -7.25953125 1.95554687 -8.1015625 1.96484375 C-8.72804688 1.97644531 -9.35453125 1.98804687 -10 2 Z " fill="#333333" transform="translate(299,119)"/>
<path d="M0 0 C2.76589638 -0.42552252 4.35051898 -0.35833436 6.8125 1 C8.73618446 4.23988962 8.18282384 7.2825819 8 11 C4.7 11 1.4 11 -2 11 C-2.25 3.375 -2.25 3.375 0 0 Z " fill="#FFEDF5" transform="translate(322,238)"/>
<path d="M0 0 C0.99 0.33 1.98 0.66 3 1 C2.67 1.99 2.34 2.98 2 4 C1.30132812 3.97679688 0.60265625 3.95359375 -0.1171875 3.9296875 C-1.48230469 3.90261719 -1.48230469 3.90261719 -2.875 3.875 C-3.77992188 3.85179688 -4.68484375 3.82859375 -5.6171875 3.8046875 C-8.18806994 3.75675164 -8.18806994 3.75675164 -10 6 C-10.24212873 7.98128508 -10.24212873 7.98128508 -10.125 10.125 C-10.08375 11.40375 -10.0425 12.6825 -10 14 C-11.32 14.33 -12.64 14.66 -14 15 C-14.66624906 11.97219488 -15.13525522 9.105668 -15 6 C-10.60422215 0.29736927 -6.95187646 -0.46804713 0 0 Z " fill="#E3E3E3" transform="translate(297,116)"/>
<path d="M0 0 C0.66 0 1.32 0 2 0 C5.44419134 10.37357631 5.44419134 10.37357631 5 16 C3.35 16.33 1.7 16.66 0 17 C-0.13277344 17.62648437 -0.26554687 18.25296875 -0.40234375 18.8984375 C-0.57894531 19.71570313 -0.75554687 20.53296875 -0.9375 21.375 C-1.11152344 22.18710938 -1.28554688 22.99921875 -1.46484375 23.8359375 C-2 26 -2 26 -3 28 C-3.66 28 -4.32 28 -5 28 C-4.70996094 26.9790625 -4.70996094 26.9790625 -4.4140625 25.9375 C-2.10673974 17.34786281 -0.95125878 8.81872843 0 0 Z " fill="#8E8E8E" transform="translate(295,148)"/>
<path d="M0 0 C0 3 0 3 -2.5 5.6875 C-3.325 6.450625 -4.15 7.21375 -5 8 C-4.67 8.33 -4.34 8.66 -4 9 C-3.57983193 14.21008403 -3.57983193 14.21008403 -4 17 C-5.875 19 -5.875 19 -8 20 C-8.66 20 -9.32 20 -10 20 C-10 17.36 -10 14.72 -10 12 C-10.66 11.67 -11.32 11.34 -12 11 C-11.30132812 10.37351563 -10.60265625 9.74703125 -9.8828125 9.1015625 C-8.97273438 8.28429687 -8.06265625 7.46703125 -7.125 6.625 C-5.76761719 5.40683594 -5.76761719 5.40683594 -4.3828125 4.1640625 C-2.89103817 2.80923795 -1.42494565 1.42494565 0 0 Z " fill="#B5B5B5" transform="translate(282,187)"/>
<path d="M0 0 C1.98 0 3.96 0 6 0 C6.33 0.66 6.66 1.32 7 2 C9.7696959 2.72886734 12.12862585 3 15 3 C15.33 4.32 15.66 5.64 16 7 C13.11788698 7.96070434 11.30149956 8.10581883 8.3125 8.0625 C7.10013672 8.04896484 7.10013672 8.04896484 5.86328125 8.03515625 C4.94095703 8.01775391 4.94095703 8.01775391 4 8 C3.34 6.35 2.68 4.7 2 3 C1.01 3.33 0.02 3.66 -1 4 C-0.67 2.68 -0.34 1.36 0 0 Z " fill="#DFDFDF" transform="translate(236,209)"/>
<path d="M0 0 C18.34042553 -0.38297872 18.34042553 -0.38297872 27 2 C27 2.99 27 3.98 27 5 C28.32 4.67 29.64 4.34 31 4 C30.67 4.99 30.34 5.98 30 7 C29.00742187 6.73445312 28.01484375 6.46890625 26.9921875 6.1953125 C18.02325605 3.84651808 9.22010232 2.09488715 0 1 C0 0.67 0 0.34 0 0 Z " fill="#343434" transform="translate(256,126)"/>
<path d="M0 0 C0.33 0 0.66 0 1 0 C1 1.65 1 3.3 1 5 C1.66 5.33 2.32 5.66 3 6 C2.54625 6.433125 2.0925 6.86625 1.625 7.3125 C-0.20024334 9.10798342 -0.20024334 9.10798342 -2 12 C-6.57142857 16 -6.57142857 16 -9 16 C-8.35026391 12.20084869 -6.58721519 9.51603315 -4.5 6.3125 C-3.8709375 5.33925781 -3.241875 4.36601562 -2.59375 3.36328125 C-1 1 -1 1 0 0 Z " fill="#A9A9A9" transform="translate(230,174)"/>
<path d="M0 0 C2.15002171 0.58908801 4.2949692 1.1967242 6.4375 1.8125 C7.63246094 2.14894531 8.82742187 2.48539063 10.05859375 2.83203125 C11.02925781 3.21746094 11.99992188 3.60289062 13 4 C14.2077558 7.62326739 13.54311128 8.64146369 12 12 C11.34 11.01 10.68 10.02 10 9 C9.01 9.33 8.02 9.66 7 10 C5.82739389 8.71372289 4.6620717 7.42080217 3.5 6.125 C2.8503125 5.40570313 2.200625 4.68640625 1.53125 3.9453125 C0 2 0 2 0 0 Z " fill="#121212" transform="translate(232,153)"/>
<path d="M0 0 C0.33 0 0.66 0 1 0 C1.2878026 3.05070757 1.44198649 5.95999538 1 9 C-1.83244597 11.52623559 -3.21564776 12 -7 12 C-7.33 9.36 -7.66 6.72 -8 4 C-4.535 3.505 -4.535 3.505 -1 3 C-0.67 2.01 -0.34 1.02 0 0 Z " fill="#F1F1F1" transform="translate(271,199)"/>
<path d="M0 0 C0.680625 0.309375 1.36125 0.61875 2.0625 0.9375 C5.36965912 2.13370649 8.51545878 2.59005397 12 3 C12 3.33 12 3.66 12 4 C9.36 4 6.72 4 4 4 C4.3609375 4.54527344 4.721875 5.09054688 5.09375 5.65234375 C8.662259 11.45117087 9.53843053 15.21577529 9 22 C6.70287916 18.55431874 5.9256412 15.43828637 4.87890625 11.47265625 C3.94915299 8.85695042 2.69409531 7.17485209 1 5 C0.3125 2.25 0.3125 2.25 0 0 Z " fill="#161616" transform="translate(292,139)"/>
<path d="M0 0 C0.84433594 0.16242188 1.68867188 0.32484375 2.55859375 0.4921875 C12.89795013 2.0178587 23.64252619 0.97810882 34 0 C30.5647952 2.29013653 29.014669 2.17842973 25 2 C24.67 3.32 24.34 4.64 24 6 C23.34 5.67 22.68 5.34 22 5 C22.33 4.34 22.66 3.68 23 3 C21.02 3 19.04 3 17 3 C16.67 3.66 16.34 4.32 16 5 C13.5185269 4.55208067 11.0403355 4.09226182 8.5625 3.625 C7.85544922 3.49867188 7.14839844 3.37234375 6.41992188 3.2421875 C4.59948 2.89377757 2.79728352 2.452957 1 2 C0.67 1.34 0.34 0.68 0 0 Z " fill="#747474" transform="translate(219,206)"/>
<path d="M0 0 C0.33 0.66 0.66 1.32 1 2 C2.32 1.67 3.64 1.34 5 1 C4.01 1.495 4.01 1.495 3 2 C4.10709491 4.06295292 4.10709491 4.06295292 6 6 C9.10197397 6.80946422 9.10197397 6.80946422 12 7 C12 7.33 12 7.66 12 8 C9.72942623 8.05398987 7.45848712 8.09278742 5.1875 8.125 C3.29064453 8.15980469 3.29064453 8.15980469 1.35546875 8.1953125 C-2 8 -2 8 -5 6 C-3.68 5.34 -2.36 4.68 -1 4 C-2.65 3.67 -4.3 3.34 -6 3 C-4.60722783 0.21445565 -3.01148006 0 0 0 Z " fill="#C3C3C3" transform="translate(235,210)"/>
<path d="M0 0 C-0.66 1.32 -1.32 2.64 -2 4 C-2 3.01 -2 2.02 -2 1 C-2.66 1 -3.32 1 -4 1 C-3.67 3.97 -3.34 6.94 -3 10 C-4.32 10.33 -5.64 10.66 -7 11 C-7.33 8.69 -7.66 6.38 -8 4 C-7.34 3.67 -6.68 3.34 -6 3 C-6.99 3 -7.98 3 -9 3 C-9.33 3.99 -9.66 4.98 -10 6 C-10 5.34 -10 4.68 -10 4 C-10.99 3.67 -11.98 3.34 -13 3 C-11.21189234 2.30329584 -9.41937948 1.61788811 -7.625 0.9375 C-6.62726563 0.55464844 -5.62953125 0.17179688 -4.6015625 -0.22265625 C-2 -1 -2 -1 0 0 Z " fill="#969696" transform="translate(267,202)"/>
<path d="M0 0 C1.32 0.66 2.64 1.32 4 2 C3.12737648 5.27233819 2.52609096 7.49087971 0.0625 9.875 C-2 11 -2 11 -5 11 C-5 9.35 -5 7.7 -5 6 C-3.68 5.67 -2.36 5.34 -1 5 C-0.67 3.35 -0.34 1.7 0 0 Z " fill="#D8D8D8" transform="translate(236,168)"/>
<path d="M0 0 C0.33 0 0.66 0 1 0 C1.47069944 4.70699441 1.85562871 8.61007379 -1.25 12.4375 C-4.97942917 15.91264991 -7.69539478 17.17900542 -12.75 17.625 C-13.54921875 17.69976562 -14.3484375 17.77453125 -15.171875 17.8515625 C-16.07679688 17.92503906 -16.07679688 17.92503906 -17 18 C-17 17.34 -17 16.68 -17 16 C-14.36 16 -11.72 16 -9 16 C-9 15.34 -9 14.68 -9 14 C-7.33720673 12.9935725 -5.67016516 11.99414593 -4 11 C-2.20446585 8.30669878 -1.57303539 6.8539399 -0.875 3.8125 C-0.441875 1.9253125 -0.441875 1.9253125 0 0 Z " fill="#292929" transform="translate(313,127)"/>
<path d="M0 0 C-0.66 0.66 -1.32 1.32 -2 2 C-1.01 2 -0.02 2 1 2 C1.33 3.32 1.66 4.64 2 6 C0.741875 6.020625 -0.51625 6.04125 -1.8125 6.0625 C-2.52019531 6.07410156 -3.22789062 6.08570313 -3.95703125 6.09765625 C-6 6 -6 6 -9 5 C-8.625 2.5625 -8.625 2.5625 -8 0 C-5.13822943 -1.43088528 -3.06624227 -0.59991697 0 0 Z " fill="#CDCDCD" transform="translate(233,210)"/>
<path d="M0 0 C-0.33 0.99 -0.66 1.98 -1 3 C-3.92759663 4.13276409 -6.80196673 4.12866383 -9.9140625 4.1328125 C-10.83960938 4.13410156 -11.76515625 4.13539063 -12.71875 4.13671875 C-13.6778125 4.13285156 -14.636875 4.12898437 -15.625 4.125 C-17.07519531 4.13080078 -17.07519531 4.13080078 -18.5546875 4.13671875 C-19.93914062 4.13478516 -19.93914062 4.13478516 -21.3515625 4.1328125 C-22.19541504 4.13168457 -23.03926758 4.13055664 -23.90869141 4.12939453 C-26 4 -26 4 -28 3 C-28 2.34 -28 1.68 -28 1 C-27.31808594 1.16113281 -26.63617188 1.32226562 -25.93359375 1.48828125 C-22.59977528 2.06981283 -19.44635217 2.16912947 -16.0625 2.1875 C-14.87785156 2.20167969 -13.69320312 2.21585938 -12.47265625 2.23046875 C-8.07233994 1.93843426 -4.36674556 0 0 0 Z " fill="#0A0A0A" transform="translate(256,215)"/>
<path d="M0 0 C1.35081368 2.70162736 0.62216215 4.07415639 0 7 C-0.46315213 13.19911314 -0.68612838 17.77798479 3 23 C3.1875 25.8125 3.1875 25.8125 3 28 C-0.2160645 25.22248975 -1.77219067 22.3279084 -2.19091797 18.04907227 C-2.26831851 15.82089791 -2.27282599 13.60433809 -2.25 11.375 C-2.26160156 10.2303125 -2.26160156 10.2303125 -2.2734375 9.0625 C-2.25985746 5.19218946 -2.19293785 3.28940677 0 0 Z " fill="#0F0F0F" transform="translate(206,175)"/>
<path d="M0 0 C2 2 2 2 2.125 4.625 C2.08375 5.40875 2.0425 6.1925 2 7 C2.66 7 3.32 7 4 7 C2.25 10.875 2.25 10.875 0 12 C0 11.01 0 10.02 0 9 C-0.66 8.34 -1.32 7.68 -2 7 C-2.33 8.32 -2.66 9.64 -3 11 C-4.32 11.33 -5.64 11.66 -7 12 C-5.61735163 9.13132769 -4.07851447 6.43975968 -2.375 3.75 C-1.92898437 3.04359375 -1.48296875 2.3371875 -1.0234375 1.609375 C-0.68570313 1.07828125 -0.34796875 0.5471875 0 0 Z " fill="#939393" transform="translate(238,162)"/>
<path d="M0 0 C1.8125 0.1875 1.8125 0.1875 4 1 C6.18668973 3.73336216 6.94864606 5.5806095 7.375 9.0625 C6.9488948 12.4003241 6.54714811 13.79247164 4 16 C0.8125 16.25 0.8125 16.25 -2 16 C-1.01 15.34 -0.02 14.68 1 14 C2.85353452 12.89661743 2.85353452 12.89661743 4 11 C3.83266624 6.39832147 3.14032517 3.41339692 0 0 Z " fill="#111111" transform="translate(301,122)"/>
<path d="M0 0 C-3.39883814 1.84556076 -6.87803706 3.02641213 -10.5625 4.1875 C-11.69816406 4.55230469 -12.83382812 4.91710937 -14.00390625 5.29296875 C-17 6 -17 6 -20 5 C-13.85211076 -0.20206013 -7.69594913 -0.27376894 0 0 Z " fill="#151515" transform="translate(263,127)"/>
<path d="M0 0 C-0.33 1.32 -0.66 2.64 -1 4 C-2.65 4 -4.3 4 -6 4 C-6.33 4.66 -6.66 5.32 -7 6 C-9.0625 6.625 -9.0625 6.625 -11 7 C-11 5.02 -11 3.04 -11 1 C-7.27569643 0.30710631 -3.78916254 -0.11144596 0 0 Z " fill="#DBDBDB" transform="translate(255,207)"/>
<path d="M0 0 C2.375 0.25 2.375 0.25 5 1 C6.3125 3.0625 6.3125 3.0625 7 5 C5.68 5 4.36 5 3 5 C3 5.66 3 6.32 3 7 C1.0625 6.6875 1.0625 6.6875 -1 6 C-1.33 5.01 -1.66 4.02 -2 3 C-1.34 2.01 -0.68 1.02 0 0 Z " fill="#999999" transform="translate(288,129)"/>
<path d="M0 0 C1.28197266 -0.01160156 1.28197266 -0.01160156 2.58984375 -0.0234375 C5.4850126 0.4430826 6.88197953 1.46261778 9.0625 3.375 C8.0725 3.705 7.0825 4.035 6.0625 4.375 C5.4025 4.045 4.7425 3.715 4.0625 3.375 C2.52581135 3.15032169 0.98281946 2.96703195 -0.5625 2.8125 C-1.37976563 2.72871094 -2.19703125 2.64492187 -3.0390625 2.55859375 C-3.66554688 2.49800781 -4.29203125 2.43742187 -4.9375 2.375 C-4.9375 3.035 -4.9375 3.695 -4.9375 4.375 C-5.5975 4.375 -6.2575 4.375 -6.9375 4.375 C-6.9375 6.025 -6.9375 7.675 -6.9375 9.375 C-7.2675 9.375 -7.5975 9.375 -7.9375 9.375 C-8.30351307 3.88480392 -8.30351307 3.88480392 -6.734375 1.69921875 C-4.38038468 -0.03556977 -2.90262628 -0.02618911 0 0 Z " fill="#232323" transform="translate(293.9375,118.625)"/>
<path d="M0 0 C0.33 0 0.66 0 1 0 C1.56561146 5.65611463 -0.28608722 9.22642128 -3 14 C-4 12 -4 12 -5 9 C-5.66 9 -6.32 9 -7 9 C-6.67 7.35 -6.34 5.7 -6 4 C-4.02 4.495 -4.02 4.495 -2 5 C-1.34 3.35 -0.68 1.7 0 0 Z " fill="#E8E8E8" transform="translate(297,171)"/>
<path d="M0 0 C5.14987929 1.36320334 8.20407039 4.61312055 11 9 C11.375 11.9375 11.375 11.9375 11 14 C10.608125 13.46375 10.21625 12.9275 9.8125 12.375 C9.214375 11.59125 8.61625 10.8075 8 10 C6.824375 8.453125 6.824375 8.453125 5.625 6.875 C3.06946624 4.07608208 1.57926635 3.02264753 -2 2 C-1.34 1.34 -0.68 0.68 0 0 Z " fill="#1F1F1F" transform="translate(302,116)"/>
<path d="M0 0 C1.1446875 0.2475 1.1446875 0.2475 2.3125 0.5 C5.03596236 1.09145396 5.03596236 1.09145396 8 1 C8.33 2.32 8.66 3.64 9 5 C6.36 5.33 3.72 5.66 1 6 C0.67 4.02 0.34 2.04 0 0 Z " fill="#EDEDED" transform="translate(243,211)"/>
<path d="M0 0 C1.65 0.33 3.3 0.66 5 1 C5 4 5 4 4 6 C2.35 6 0.7 6 -1 6 C-0.67 4.02 -0.34 2.04 0 0 Z " fill="#6D6D6D" transform="translate(246,158)"/>
<path d="M0 0 C-1.23924145 4.95696581 -2.78577758 7.11658466 -7 10 C-7.66 9.67 -8.32 9.34 -9 9 C-7.02 7.02 -5.04 5.04 -3 3 C-4.32 2.67 -5.64 2.34 -7 2 C-4.35261084 0.5393715 -3.10551666 0 0 0 Z " fill="#6E6E6E" transform="translate(272,142)"/>
<path d="M0 0 C1.19334591 3.58003773 1.33543224 6.24315896 1 10 C-1 11.9375 -1 11.9375 -3 13 C-3 11.35 -3 9.7 -3 8 C-2.34 8 -1.68 8 -1 8 C-1 7.34 -1 6.68 -1 6 C-1.99 6.33 -2.98 6.66 -4 7 C-3.67 6.01 -3.34 5.02 -3 4 C-2.34 4 -1.68 4 -1 4 C-0.67 2.68 -0.34 1.36 0 0 Z " fill="#BFBFBF" transform="translate(283,189)"/>
<path d="M0 0 C0.33 0 0.66 0 1 0 C1 1.65 1 3.3 1 5 C1.99 5.33 2.98 5.66 4 6 C2.71034824 7.37562854 1.37310707 8.70766393 0 10 C-0.66 10 -1.32 10 -2 10 C-2.17942163 6.05272412 -2.09350689 3.4019487 0 0 Z " fill="#BFBFBF" transform="translate(287,184)"/>
<path d="M0 0 C1.24386556 3.73159669 0.77811718 6.18015204 0 10 C-0.99 10.495 -0.99 10.495 -2 11 C-4.125 6.375 -4.125 6.375 -3 3 C-1.4375 1.3125 -1.4375 1.3125 0 0 Z " fill="#D1D1D1" transform="translate(296,166)"/>
<path d="M0 0 C0.99 0.33 1.98 0.66 3 1 C0.03 3.97 -2.94 6.94 -6 10 C-6.33 9.01 -6.66 8.02 -7 7 C-4.69 4.69 -2.38 2.38 0 0 Z " fill="#0C0C0C" transform="translate(226,143)"/>
<path d="M0 0 C3.35595828 0.59927826 5.37801226 1.84622436 8 4 C7.01 4.495 7.01 4.495 6 5 C6.66 5.33 7.32 5.66 8 6 C7.67 6.99 7.34 7.98 7 9 C7 8.34 7 7.68 7 7 C6.360625 6.731875 5.72125 6.46375 5.0625 6.1875 C3 5 3 5 2 2 C1.34 2 0.68 2 0 2 C0 1.34 0 0.68 0 0 Z " fill="#909090" transform="translate(211,202)"/>
<path d="M0 0 C0 0.66 0 1.32 0 2 C-1.60256108 2.50512244 -3.20711792 3.00391627 -4.8125 3.5 C-6.15248047 3.91765625 -6.15248047 3.91765625 -7.51953125 4.34375 C-10 5 -10 5 -13 5 C-13 4.34 -13 3.68 -13 3 C-11.39743892 2.49487756 -9.79288208 1.99608373 -8.1875 1.5 C-7.29417969 1.2215625 -6.40085938 0.943125 -5.48046875 0.65625 C-3 0 -3 0 0 0 Z " fill="#3A3A3A" transform="translate(229,169)"/>
<path d="M0 0 C0.66 0.99 1.32 1.98 2 3 C1.04882866 4.1725131 0.08882991 5.33787015 -0.875 6.5 C-1.40867188 7.1496875 -1.94234375 7.799375 -2.4921875 8.46875 C-2.98976562 8.9740625 -3.48734375 9.479375 -4 10 C-4.66 10 -5.32 10 -6 10 C-4.6302836 6.00499382 -2.74277578 3.19990508 0 0 Z " fill="#252525" transform="translate(218,151)"/>
<path d="M0 0 C0 0.99 0 1.98 0 3 C1.32 2.67 2.64 2.34 4 2 C3.67 2.99 3.34 3.98 3 5 C-4.57142857 3.14285714 -4.57142857 3.14285714 -7 0 C-3.98968256 -0.93423645 -3.13349732 -1.04449911 0 0 Z " fill="#292929" transform="translate(283,128)"/>
<path d="M0 0 C0.66 0 1.32 0 2 0 C0.69386058 3.91841827 -0.83129848 6.32640809 -4 9 C-4.66 9 -5.32 9 -6 9 C-4.4722133 5.56247993 -2.49818944 2.81046312 0 0 Z " fill="#1E1E1E" transform="translate(288,193)"/>
<path d="M0 0 C1.98 0 3.96 0 6 0 C6 0.99 6 1.98 6 3 C3.09399739 4.25664978 1.20395416 5 -2 5 C-2 4.01 -2 3.02 -2 2 C-1.34 2 -0.68 2 0 2 C0 1.34 0 0.68 0 0 Z " fill="#333333" transform="translate(258,212)"/>
<path d="M0 0 C0.66 0.99 1.32 1.98 2 3 C0.37660195 4.70884005 -1.29319053 6.37446717 -3 8 C-3.66 8 -4.32 8 -5 8 C-4.45773019 4.20411134 -2.79872437 2.52788007 0 0 Z " fill="#595959" transform="translate(226,182)"/>
<path d="M0 0 C1.56614842 0.06488751 3.12951016 0.2026663 4.6875 0.375 C6.03521484 0.52388672 6.03521484 0.52388672 7.41015625 0.67578125 C10.28975691 1.03627424 13.1458893 1.47424276 16 2 C16 2.33 16 2.66 16 3 C13.72942623 3.05398987 11.45848712 3.09278742 9.1875 3.125 C7.29064453 3.15980469 7.29064453 3.15980469 5.35546875 3.1953125 C2 3 2 3 -1 1 C-0.67 0.67 -0.34 0.34 0 0 Z " fill="#848484" transform="translate(231,215)"/>
<path d="M0 0 C-0.52268466 2.76276177 -1.10869587 5.3260876 -2 8 C-2.99 8.495 -2.99 8.495 -4 9 C-4.33 6.36 -4.66 3.72 -5 1 C-3 0 -3 0 0 0 Z " fill="#F9F9F9" transform="translate(261,205)"/>
<path d="M0 0 C1.4835001 0.42257276 2.96176424 0.86356322 4.4375 1.3125 C5.67306641 1.67794922 5.67306641 1.67794922 6.93359375 2.05078125 C7.61550781 2.36402344 8.29742187 2.67726562 9 3 C9.33 3.99 9.66 4.98 10 6 C6.51329166 4.8905928 3.22515763 3.73662334 0 2 C0 1.34 0 0.68 0 0 Z " fill="#1B1B1B" transform="translate(218,212)"/>
<path d="M0 0 C1.42944945 2.35438733 2.08661261 3.48032433 1.625 6.25 C1.41875 6.8275 1.2125 7.405 1 8 C-0.32 8 -1.64 8 -3 8 C-3 7.01 -3 6.02 -3 5 C-2.34 5 -1.68 5 -1 5 C-0.67 3.35 -0.34 1.7 0 0 Z " fill="#E5E5E5" transform="translate(291,181)"/>
<path d="M0 0 C0.66 0 1.32 0 2 0 C2.33 2.97 2.66 5.94 3 9 C2.01 9 1.02 9 0 9 C0 6.03 0 3.06 0 0 Z " fill="#AAAAAA" transform="translate(297,153)"/>
<path d="M0 0 C0.33 0 0.66 0 1 0 C0.125 7.75 0.125 7.75 -1 10 C-1.66 10 -2.32 10 -3 10 C-2.69201674 8.51988629 -2.378482 7.04092675 -2.0625 5.5625 C-1.88847656 4.73878906 -1.71445312 3.91507813 -1.53515625 3.06640625 C-1 1 -1 1 0 0 Z " fill="#191919" transform="translate(300,169)"/>
<path d="M0 0 C0.66 0 1.32 0 2 0 C2.66 2.64 3.32 5.28 4 8 C3.01 8 2.02 8 1 8 C0.67 5.36 0.34 2.72 0 0 Z " fill="#E7E7E7" transform="translate(263,203)"/>
<path d="M0 0 C0.33 0 0.66 0 1 0 C1 1.65 1 3.3 1 5 C1.66 5.33 2.32 5.66 3 6 C2.01 6 1.02 6 0 6 C-1.33981486 6.3062434 -2.67511887 6.63451555 -4 7 C-2.79618552 4.50638429 -1.54571278 2.31856917 0 0 Z " fill="#7D7D7D" transform="translate(230,174)"/>
<path d="M0 0 C1.32 0.33 2.64 0.66 4 1 C3.67 1.99 3.34 2.98 3 4 C2.01 4.33 1.02 4.66 0 5 C-0.66 4.34 -1.32 3.68 -2 3 C-1.34 2.01 -0.68 1.02 0 0 Z " fill="#E4E4E4" transform="translate(288,129)"/>
<path d="M0 0 C1.98 0 3.96 0 6 0 C6.33 1.32 6.66 2.64 7 4 C5.35 4 3.7 4 2 4 C1.34 2.68 0.68 1.36 0 0 Z " fill="#EAEAEA" transform="translate(228,212)"/>
<path d="M0 0 C-2.3125 1.5625 -2.3125 1.5625 -5 3 C-5.99 2.67 -6.98 2.34 -8 2 C-6.14210462 -1.71579076 -3.44525918 -1.06921837 0 0 Z " fill="#121212" transform="translate(271,211)"/>
<path d="M0 0 C0.99 0 1.98 0 3 0 C3 1.98 3 3.96 3 6 C2.01 6.33 1.02 6.66 0 7 C-0.38133299 5.0085944 -0.71325582 3.00720923 -1 1 C-0.67 0.67 -0.34 0.34 0 0 Z " fill="#B1B1B1" transform="translate(268,199)"/>
<path d="M0 0 C0.99 0.33 1.98 0.66 3 1 C2.01 2.32 1.02 3.64 0 5 C-1.32 4.67 -2.64 4.34 -4 4 C-2.68 2.68 -1.36 1.36 0 0 Z " fill="#2F2F2F" transform="translate(231,138)"/>
<path d="M0 0 C0.99 0 1.98 0 3 0 C3.33 2.31 3.66 4.62 4 7 C1.49962266 4.82575883 0.56371414 3.26954202 0 0 Z " fill="#171717" transform="translate(205,196)"/>
<path d="M0 0 C0.66 0 1.32 0 2 0 C1.67 2.31 1.34 4.62 1 7 C0.01 7.33 -0.98 7.66 -2 8 C-1.34 5.36 -0.68 2.72 0 0 Z " fill="#1B1B1B" transform="translate(207,168)"/>
<path d="M0 0 C5.41538462 -0.36923077 5.41538462 -0.36923077 8.375 1.5 C8.91125 1.995 9.4475 2.49 10 3 C2.25 2.25 2.25 2.25 0 0 Z " fill="#0F0F0F" transform="translate(292,114)"/>
</svg>
