<svg width="3528" height="1375" viewBox="0 0 3528 1375" fill="none" xmlns="http://www.w3.org/2000/svg">
<g clip-path="url(#clip0_418_3546)">
<path fill-rule="evenodd" clip-rule="evenodd" d="M1592.04 693.408C1586.71 697.967 1548.23 733.583 1542.97 735.329C1540.69 726.822 1527.09 680.39 1527.69 675.279C1518.78 677.08 1511.35 684.96 1506.2 689.238C1475.3 714.907 1440.57 742.318 1411.08 767.646C1405.37 772.551 1374.68 796.488 1374.04 799.128C1405.55 800.184 1439.64 799.18 1471.43 799.18L2129.27 799.161C2134.7 799.161 2151.28 800.32 2149.59 797.836L2145 798.816C2143.74 798.872 2141.68 798.778 2140.33 798.767C2096.63 798.418 1838.18 799.916 1828.24 798.297C1836.03 793.209 1847.78 781.621 1853.6 773.375C1879.16 737.212 1846.84 706.415 1834.67 664.047C1833.13 664.937 1834.21 664.18 1832.98 665.31C1831.5 666.667 1819.77 682.513 1808.31 693.076C1788.39 711.424 1766.31 724.695 1738.76 736.004C1728.25 740.315 1706.4 747.164 1694.05 748.51C1695.04 745.667 1695.4 745.988 1698.09 743.656C1707.43 735.576 1719.42 722.548 1726.43 713.609C1736.15 701.203 1743.87 688.067 1747.2 670.209C1750.71 651.389 1746.32 630.445 1746.81 610.804C1747.34 589.622 1752.6 577.696 1758.92 559.534C1750.26 561.135 1741.13 570.473 1735.93 574.702C1688.03 613.662 1640.36 654.412 1592.04 693.409L1592.04 693.408Z" fill="#FF0178"/>
<path fill-rule="evenodd" clip-rule="evenodd" d="M1894.39 436.896L1906.3 440.559C1907.05 436.036 1926.1 388.056 1929.4 379.615C1931.33 374.685 1933.85 363.904 1937.63 360.878C1950.71 364.381 1966.22 369.532 1978.03 374.223C1976.66 378.66 1947.65 432.249 1942.49 442.01C1938.66 449.241 1940.19 449.316 1936.67 450.455L1950.14 455.655C1949.91 452.44 1957.34 440.252 1959.64 436.096C1963.86 428.477 1987.58 381.943 1990.15 379.112C1995.26 380.359 2025.29 393.533 2028.89 396.161C2027.83 400.051 2019.4 410.729 2016.67 414.866C2012.54 421.136 2009 426.064 2004.47 432.728C2001.58 436.983 1981.7 466.914 1979.53 468.288L1991.43 474.593C1991.64 471.202 2040.05 402.617 2040.82 402.027C2045.99 404.438 2074.37 419.454 2077.05 422.893L2025.93 482.552C2024.56 484.168 2023.81 485.112 2022.5 486.695C2020.07 489.643 2021.42 489.498 2017.94 489.366C2021.13 491.803 2026.7 494.573 2029.86 496.885L2087.81 429.501C2091.92 430.81 2117.35 449.161 2121.57 452.77C2120.67 455.173 2058.4 513.704 2055.65 514.757C2058.62 517.717 2062.56 520.587 2065.91 522.759C2066.27 521.995 2127.29 463.691 2132.03 460.953C2138.38 465.308 2147.8 474.342 2155.1 480.25L2162.39 487.363C2160.82 489.578 2131.34 511.471 2126.15 515.366L2089.66 542.967C2091 545.337 2096.49 550.29 2099.03 552.465C2098.84 549.643 2101.95 548.019 2106.43 544.894C2115.69 538.432 2168.51 497.047 2171.65 496.275C2175.86 499.186 2196.18 521.198 2198.53 525.102C2196.75 527.301 2146.33 557.649 2139.23 561.904C2134.07 564.996 2124.01 572.053 2118.89 573.814C2121.52 577.256 2124.22 580.865 2127.46 584.039C2128.33 580.433 2162.43 561.245 2166.18 558.954C2172.16 555.305 2202.48 536.164 2206.66 534.695C2209.86 537.371 2228.24 561.729 2230.03 565.987L2228.87 566.731C2228.75 566.804 2228.45 566.99 2228.3 567.079C2228.14 567.166 2227.89 567.309 2227.72 567.402L2219.55 571.495C2216.05 573.248 2212.6 574.778 2208.99 576.566C2201.78 580.135 2194.92 583.491 2187.82 586.892L2145.05 607.334C2146.64 609.799 2150.6 616.916 2152.35 618.542L2151.99 616.398C2161.95 613.304 2230.31 577.361 2237.38 576.013C2242.48 586.756 2251.97 598.222 2256.34 609.23C2254.21 610.822 2169.58 642.383 2166.37 642.749C2168.28 645.964 2170.46 652.172 2172.49 654.769L2172.38 652.606C2177.84 651.394 2208.37 639.425 2217.18 636.308C2224.43 633.743 2231.83 631.059 2238.92 628.18C2243.93 626.143 2257.07 620.885 2262.29 619.977C2266.06 631.008 2274.13 643.57 2277.11 655.121C2270.12 657.723 2261.5 659.5 2254.08 661.449C2239.83 665.186 2191.05 679.52 2183.2 679.965C2185.2 683.371 2186.47 690.189 2188.09 692.621C2187.81 689.634 2188.39 690.428 2192 689.497L2233.43 678.524C2241.21 676.423 2249.56 674.218 2257.27 672.106C2263.51 670.397 2275.51 666.611 2281.33 665.936L2291.32 698.316L2325.54 707.918C2323.48 681.092 2298.81 622.849 2285.74 598.356C2267.43 564.025 2247.86 536.028 2223.79 508.133C2220.12 503.884 2217.11 503.19 2220.91 497.146C2223.51 493.023 2225.64 489.227 2228.01 485.1L2270.19 413.387C2276.37 402.521 2322.99 324.696 2326.15 317.649C2323.4 317.894 2174.58 381.915 2158.5 388.831C2148.75 393.027 2140.85 396.373 2130.3 400.933C2125.15 403.159 2121.05 404.866 2116.15 406.986C2108.47 410.31 2109.87 409.23 2103.25 404.98C2072.75 385.414 2034.85 365.831 1997.77 351.941C1964.49 339.475 1939.52 331.933 1904.2 324.102C1894.81 322.022 1878.79 318.245 1869.58 317.701L1880.32 346.732C1882.94 347.766 1919.52 356.019 1924.18 356.822C1923.58 362.045 1905.13 407.556 1901.74 416.656C1899.85 421.74 1894.98 432.225 1894.39 436.9L1894.39 436.896Z" fill="#FF0178"/>
<path fill-rule="evenodd" clip-rule="evenodd" d="M1877.15 648.142C1892.07 661.146 1905.38 671.653 1921.58 685.045L1965.8 721.256C1965.72 716.965 1943.01 633.868 1941.63 631.752L1943.28 631.178C1936.69 628.772 1916.93 636.536 1909.59 638.779C1904.11 640.454 1881.1 648.439 1877.15 648.143V648.142Z" fill="#FF0178"/>
<path fill-rule="evenodd" clip-rule="evenodd" d="M1629.27 437.024L1616.97 440.404C1612.43 442.286 1606.81 443.569 1601.8 445.298C1596.65 447.078 1591.7 448.992 1586.47 450.463L1573.14 455.628C1568.15 457.96 1562.98 459.847 1557.97 462.136C1553.49 464.181 1547.84 467.309 1543.28 468.604L1532.25 474.175C1529.39 476.373 1522.18 479.875 1518.47 481.881C1513.18 484.738 1509.5 487.313 1504.73 489.798C1501.58 491.843 1496.95 494.775 1493.34 496.637C1491.55 498.608 1483.56 503.532 1480.76 505.546C1476.06 508.92 1472.04 512.099 1467.63 514.785L1457.39 522.654C1453.68 526.39 1449.68 529.672 1445.76 533.072C1443.38 535.136 1435.23 542.212 1433.76 543.066L1424.97 551.678C1422.28 555.319 1418.15 558.924 1414.78 562.46C1411.68 565.711 1407.76 570.89 1404.35 573.827C1402.41 576.635 1398.64 581.562 1395.81 583.912C1393.86 587.217 1390.11 591.592 1387.52 595.01C1384.3 599.236 1381.83 602.422 1379.04 606.644L1370.99 618.437C1369.2 622.103 1365.91 627.063 1363.78 630.599C1361.3 634.718 1359.47 638.559 1356.94 642.733L1350.72 654.613L1340.01 679.986L1335.2 692.453C1333.39 699.727 1332.34 698.319 1324.21 700.542C1293.39 708.971 1098.99 765.283 1090.36 766.546C1091.46 704.927 1118.36 617.759 1145.02 569.658C1173.77 517.8 1184 501.543 1223.39 454.954C1234.56 441.743 1236.33 444.471 1231.44 436.667C1229.41 433.429 1227.63 430.323 1225.59 426.714L1218.99 416.394C1207.68 424.429 1164.96 479.269 1158.16 488.919C1120.06 543.04 1091.3 602.594 1074.7 666.113C1067.52 693.611 1063.04 718.326 1060.08 746.483C1059.14 755.443 1059.3 767.703 1057.62 775.913L999.781 792.548C996.359 793.519 993.689 794.254 990.129 795.272C986.828 796.215 982.574 796.93 979.818 798.995L1348.9 799.049C1349.93 795.217 1349.65 782.948 1349.98 778.247C1362.98 596.076 1539.03 446.981 1761.66 446.994C1931.48 447.003 2075.62 535.796 2137.44 654.142C2161.22 699.649 2172.69 742.425 2174.09 799.051L2543.49 799.04L2465.69 775.914C2464.04 767.824 2464.24 755.978 2463.31 747.149C2451.69 637.065 2409.8 541.058 2336.28 451.45L2312.92 424.993C2309.85 421.782 2307.75 418.832 2304.32 416.395C2304.16 416.542 2303.94 416.583 2303.88 416.859C2303.82 417.134 2303.53 417.223 2303.45 417.33C2303.37 417.436 2303.15 417.681 2303.05 417.814L2292.2 436.149C2286.93 444.663 2288.11 440.956 2299.54 454.504C2332.07 493.052 2354.63 523.443 2378.3 569.673C2405.9 623.58 2430.97 699.118 2432.97 766.545C2426.28 765.573 2317.35 734.143 2308.43 731.578L2199.8 700.733C2191.38 698.415 2190.21 699.967 2188.09 692.623C2186.47 690.192 2185.2 683.373 2183.2 679.968L2172.49 654.771C2170.46 652.174 2168.28 645.966 2166.37 642.751C2163.87 638.58 2161.98 634.714 2159.54 630.588C2157.35 626.879 2154.35 622.35 2152.35 618.546C2150.6 616.92 2146.64 609.802 2145.05 607.337C2142.95 605.489 2138.68 598.764 2136.52 595.964C2133.62 592.201 2129.97 587.795 2127.46 584.042C2124.22 580.868 2121.52 577.259 2118.89 573.818C2112.57 566.392 2105.35 559.091 2099.04 552.47C2096.49 550.294 2091 545.341 2089.66 542.971C2088.21 542.252 2079.88 535.112 2077.55 533.08C2073.74 529.746 2069.55 526.179 2065.91 522.763C2062.57 520.59 2058.63 517.721 2055.65 514.761C2051.58 512.329 2047.19 508.953 2043.06 505.913C2040.34 503.917 2031.31 498.36 2029.86 496.89C2026.71 494.577 2021.13 491.807 2017.94 489.371C2013.2 487.061 2009.88 484.608 2004.85 481.887C2000.37 479.465 1996.07 477.125 1991.43 474.597L1979.53 468.292C1974.4 466.923 1969.87 464.183 1964.74 461.861C1959.76 459.611 1955.12 457.741 1950.15 455.658L1936.67 450.458C1926.43 447.25 1917.05 443.655 1906.3 440.562L1894.4 436.9C1876.69 434.687 1879.95 431.781 1874.57 417.777L1821.5 281.388C1817.58 270.954 1801.94 232.647 1800.26 226C1864.5 226.309 1956.39 246.306 2014.58 266.806C2065.47 284.735 2117.96 309.131 2160.85 336.98C2167.34 341.197 2173.43 345.644 2179.94 349.248L2210.42 336.503C2205.72 328.706 2133.02 288.041 2125.85 284.295C2096.61 269.019 2063.38 254.283 2029.14 242.553C1959.19 218.584 1875.7 200.203 1789.76 198.343C1786.77 194.442 1778.12 169.975 1775.59 163.31C1773.37 157.431 1764.2 131.676 1761.66 128.39C1757.62 133.507 1738.27 192.201 1733.55 198.339C1588.88 201.711 1443.97 248.439 1333.01 322.075C1328.6 325.007 1314.78 333.38 1312.86 336.568L1343.24 349.468L1381.25 325.491C1447.53 286.069 1527.41 255.808 1608.13 239.889C1640.93 233.42 1687.77 226.171 1723.05 226.002C1720.8 234.918 1665.63 374.232 1659.5 390.004L1643.77 430.811C1641.96 435.082 1640 434.611 1629.28 437.029L1629.27 437.024Z" fill="#373051"/>
<path fill-rule="evenodd" clip-rule="evenodd" d="M2149.59 797.835L2085.87 745.338C2081.33 741.773 2077.55 738.646 2073.03 735.039L1970.97 650.756C1963.58 644.943 1951.53 632.313 1943.28 631.177L1941.63 631.751C1943.01 633.867 1965.72 716.964 1965.8 721.255L1921.58 685.044C1905.38 671.652 1892.07 661.145 1877.15 648.141L1778.63 567.222C1774.08 562.826 1769.4 558.683 1758.92 559.531C1752.6 577.694 1747.34 589.62 1746.81 610.801C1746.33 630.443 1750.71 651.386 1747.2 670.207C1743.87 688.064 1736.15 701.201 1726.43 713.607C1719.42 722.544 1707.43 735.574 1698.09 743.654C1695.39 745.986 1695.04 745.664 1694.05 748.507C1706.4 747.162 1728.25 740.313 1738.75 736.001C1766.31 724.693 1788.39 711.422 1808.31 693.074C1819.77 682.51 1831.5 666.665 1832.98 665.308C1834.21 664.177 1833.13 664.935 1834.67 664.045C1846.84 706.413 1879.16 737.21 1853.6 773.372C1847.78 781.619 1836.03 793.206 1828.24 798.294C1838.18 799.914 2096.63 798.416 2140.33 798.764C2141.68 798.775 2143.74 798.869 2145 798.814L2149.59 797.834V797.835Z" fill="#373051"/>
<path fill-rule="evenodd" clip-rule="evenodd" d="M1592.04 693.408C1582.2 690.122 1571.17 686.796 1561.05 683.687C1552.5 681.062 1537.11 675.122 1527.69 675.279C1527.09 680.389 1540.69 726.821 1542.97 735.328C1548.23 733.582 1586.71 697.967 1592.04 693.407L1592.04 693.408Z" fill="#373051"/>
<path fill-rule="evenodd" clip-rule="evenodd" d="M1335.21 692.448L1340.01 679.982C1332.72 679.696 1301.87 670.264 1292.25 667.749C1277.06 663.775 1260.88 659.65 1246.15 655.261C1247.48 647.863 1257.56 627.791 1261.1 620.126C1267.92 620.94 1299.2 633.647 1307.45 636.742C1314.97 639.56 1322.81 642.384 1329.91 645.057C1334.43 646.758 1337.2 647.784 1341.44 649.356C1350.18 652.602 1351.16 651.61 1350.72 654.61L1356.94 642.73C1354.1 642.613 1269.82 611.397 1266.94 609.23C1271.19 599.148 1279.76 585.712 1286.05 576.129C1291.41 577.078 1351.05 607.348 1367.32 614.745C1370.02 615.972 1371.64 615.977 1370.99 618.434L1379.04 606.641C1374.58 607.167 1341.92 589.875 1335.5 586.879C1329.58 584.114 1296.95 569.099 1293.45 565.987C1294.99 561.398 1312.53 538.327 1316.65 534.725C1319.92 535.668 1352.14 555.744 1357.23 558.898C1360.81 561.118 1395.19 580.594 1395.81 583.91C1398.64 581.56 1402.41 576.633 1404.35 573.824C1399.77 572.461 1326.34 526.855 1324.79 525.103C1326.94 520.956 1348.56 498.497 1351.66 496.281C1354.07 496.885 1424.16 550 1424.97 551.676L1433.76 543.065L1397.18 515.355C1391.74 511.223 1362.38 490.017 1361 487.363C1363.57 483.77 1386.35 464.147 1391.28 461.241C1395.43 462.7 1457.13 522.134 1457.39 522.651L1467.63 514.783C1466.99 514.506 1402.78 456.067 1401.69 452.769C1407.58 448.309 1429.81 431.467 1435.5 429.512L1493.34 496.634C1496.95 494.773 1501.59 491.84 1504.74 489.796C1502.31 488.824 1502.76 488.908 1500.08 485.718L1446.34 422.892C1448.6 419.816 1478.02 403.649 1482.49 402.234L1486.43 406.981C1487.38 408.421 1488.42 409.892 1489.5 411.452L1532.25 474.173L1543.28 468.602C1536.07 456.613 1526.95 444.965 1518.51 432.251C1514.39 426.041 1495.65 400.622 1494.47 396.161C1497.27 394.112 1529.38 379.672 1533.17 379.146C1536.03 382.46 1550.12 410.673 1553.67 417.177L1569.11 446.404C1570.68 449.569 1573.39 452.623 1573.14 455.626L1586.47 450.462C1583.6 449.374 1581.85 443.966 1580.53 441.453L1555.03 393.244C1552.54 388.497 1546.42 378.354 1545.43 374.288C1550.43 371.987 1580.91 361.318 1586.74 361.061L1616.97 440.403L1629.28 437.023C1625.82 424.105 1599.9 363.899 1599.22 356.845L1642.71 346.827C1645.9 342.713 1651.81 323.473 1654.23 318.003C1646.72 316.85 1593.82 329.9 1584.74 332.478C1529.86 348.067 1485.33 366.48 1438.35 393.868C1434.01 396.4 1415.39 408.426 1412.47 409.315C1403.93 406.114 1395.06 401.691 1386.2 398.072C1363.52 388.807 1201.17 318.007 1197.33 317.858L1301.8 496.106C1306.07 503.177 1305.31 501.525 1299.97 507.708C1262.41 551.209 1234.59 596.758 1214.68 649.621C1210.45 660.835 1198.05 695.762 1197.95 707.386C1201.17 707.159 1230.4 699.382 1232.06 697.376C1234.05 694.957 1238.99 671.916 1242.02 666.135C1249.58 666.442 1311.93 684.947 1330.55 689.317C1335.1 690.387 1334.85 689.312 1335.21 692.447L1335.21 692.448Z" fill="#FF5B03"/>
<path d="M3523.1 1359.3H14.9189V1375H3523.1V1359.3Z" fill="#FF5B03"/>
<path d="M3508.39 836.001H0.208984V851.697H3508.39V836.001Z" fill="#FF5B03"/>
<path d="M209.61 1282V1032.9H136.76V958.64H391.97V1032.9H319.12V1282H209.61ZM572.729 1289.52C541.396 1289.52 513.822 1283.88 490.009 1272.6C466.196 1261.32 447.709 1245.18 434.549 1224.19C421.389 1202.88 414.809 1177.5 414.809 1148.05V958.64H519.149V1143.35C519.149 1164.34 524.162 1179.85 534.189 1189.88C544.529 1199.59 558.002 1204.45 574.609 1204.45C592.156 1204.45 605.472 1199.44 614.559 1189.41C623.959 1179.38 628.659 1165.6 628.659 1148.05V958.64H734.409V1148.05C734.409 1175.94 727.516 1200.53 713.729 1221.84C699.942 1243.15 680.829 1259.75 656.389 1271.66C632.262 1283.57 604.376 1289.52 572.729 1289.52ZM1024.27 1289.52C1001.71 1289.52 983.064 1286.23 968.337 1279.65C953.61 1272.76 941.86 1263.36 933.087 1251.45C924.314 1239.54 917.734 1225.6 913.347 1209.62C908.96 1193.64 905.984 1176.41 904.417 1157.92H882.327V1282H779.397V958.64H912.407C963.794 958.64 1000.77 967.727 1023.33 985.9C1046.2 1003.76 1057.64 1028.04 1057.64 1058.75C1057.64 1077.24 1052.62 1093.84 1042.6 1108.57C1032.57 1122.98 1016.43 1135.05 994.187 1144.76C995.44 1151.65 996.537 1157.29 997.477 1161.68C998.417 1166.07 999.827 1170.92 1001.71 1176.25C1005.78 1187.53 1010.79 1195.36 1016.75 1199.75C1023.01 1204.14 1031.47 1206.33 1042.13 1206.33C1049.02 1206.33 1055.91 1205.39 1062.81 1203.51L1068.45 1280.59C1062.18 1283.1 1055.44 1285.13 1048.24 1286.7C1041.34 1288.58 1033.35 1289.52 1024.27 1289.52ZM882.327 1093.53H900.187C923.374 1093.53 939.667 1091.02 949.067 1086.01C958.78 1080.68 963.637 1071.75 963.637 1059.22C963.637 1048.57 959.72 1040.89 951.887 1036.19C944.054 1031.18 931.677 1028.67 914.757 1028.67H882.327V1093.53ZM1097.01 1282V958.64H1203.23V1282H1097.01ZM1353.6 1289.52C1333.86 1289.52 1313.81 1287.01 1293.44 1282C1273.08 1277.3 1255.84 1270.88 1241.74 1262.73L1258.66 1186.12C1276.84 1195.83 1293.76 1202.26 1309.42 1205.39C1325.4 1208.21 1340.13 1209.62 1353.6 1209.62C1366.14 1209.62 1375.54 1207.58 1381.8 1203.51C1388.38 1199.44 1391.67 1193.95 1391.67 1187.06C1391.67 1180.79 1388.07 1175.94 1380.86 1172.49C1373.66 1168.73 1364.26 1165.28 1352.66 1162.15C1341.38 1159.02 1329.32 1155.41 1316.47 1151.34C1303.63 1146.95 1291.41 1141.31 1279.81 1134.42C1268.53 1127.21 1259.29 1117.81 1252.08 1106.22C1244.88 1094.31 1241.27 1079.43 1241.27 1061.57C1241.27 1039.01 1246.76 1019.58 1257.72 1003.29C1268.69 986.683 1284.36 973.993 1304.72 965.22C1325.09 956.133 1349.06 951.59 1376.63 951.59C1395.12 951.59 1413.14 954.097 1430.68 959.11C1448.54 963.81 1462.8 970.233 1473.45 978.38L1457.47 1047.47C1441.49 1040.89 1427.08 1036.19 1414.23 1033.37C1401.7 1030.24 1389.79 1028.67 1378.51 1028.67C1365.35 1028.67 1355.33 1030.55 1348.43 1034.31C1341.54 1038.07 1338.09 1043.08 1338.09 1049.35C1338.09 1055.3 1341.7 1060.16 1348.9 1063.92C1356.11 1067.68 1365.35 1071.28 1376.63 1074.73C1387.91 1078.18 1399.98 1082.09 1412.82 1086.48C1425.67 1090.87 1437.73 1096.66 1449.01 1103.87C1460.29 1111.08 1469.54 1120.48 1476.74 1132.07C1483.95 1143.66 1487.55 1158.23 1487.55 1175.78C1487.55 1212.13 1475.65 1240.17 1451.83 1259.91C1428.33 1279.65 1395.59 1289.52 1353.6 1289.52ZM1570.5 1282V1032.9H1497.65V958.64H1752.86V1032.9H1680.01V1282H1570.5ZM1782.28 1282V958.64H2009.29V1030.08H1896.49V1087.42H1999.42V1146.64H1896.49V1208.21H2009.29V1282H1782.28ZM2027.73 1282L2117.03 958.64H2269.31L2362.84 1282H2247.69L2235.47 1219.96H2151.81L2138.18 1282H2027.73ZM2161.68 1162.15H2224.19L2193.64 1020.68L2161.68 1162.15ZM2388.14 1282V958.64H2482.14L2609.04 1130.19V958.64H2695.52V1282H2601.52L2474.62 1117.5V1282H2388.14ZM2747.06 1282V958.64H2859.39C2906.39 958.64 2944.62 965.377 2974.07 978.85C3003.84 992.323 3025.62 1010.97 3039.4 1034.78C3053.5 1058.59 3060.55 1086.32 3060.55 1117.97C3060.55 1169.67 3043.48 1209.93 3009.32 1238.76C2975.48 1267.59 2923.94 1282 2854.69 1282H2747.06ZM2850.93 1199.75H2881.01C2906.08 1199.75 2924.72 1192.23 2936.94 1177.19C2949.16 1161.84 2955.27 1141.78 2955.27 1117.03C2955.27 1094.16 2949.32 1075.83 2937.41 1062.04C2925.82 1047.94 2907.02 1040.89 2881.01 1040.89H2850.93V1199.75ZM3257.97 1289.52C3223.82 1289.52 3193.74 1282.31 3167.73 1267.9C3141.73 1253.49 3121.36 1233.59 3106.63 1208.21C3092.22 1182.83 3085.01 1153.69 3085.01 1120.79C3085.01 1087.58 3092.22 1058.28 3106.63 1032.9C3121.36 1007.52 3141.73 987.623 3167.73 973.21C3193.74 958.797 3223.82 951.59 3257.97 951.59C3292.13 951.59 3322.21 958.797 3348.21 973.21C3374.22 987.31 3394.43 1007.05 3408.84 1032.43C3423.57 1057.81 3430.93 1087.26 3430.93 1120.79C3430.93 1153.69 3423.57 1182.83 3408.84 1208.21C3394.43 1233.59 3374.22 1253.49 3348.21 1267.9C3322.21 1282.31 3292.13 1289.52 3257.97 1289.52ZM3257.97 1203.98C3277.71 1203.98 3293.85 1196.3 3306.38 1180.95C3319.23 1165.6 3325.65 1145.39 3325.65 1120.32C3325.65 1103.4 3322.68 1088.52 3316.72 1075.67C3311.08 1062.82 3303.09 1052.8 3292.75 1045.59C3282.73 1038.07 3270.98 1034.31 3257.5 1034.31C3237.76 1034.31 3221.63 1042.3 3209.09 1058.28C3196.56 1073.95 3190.29 1094.63 3190.29 1120.32C3190.29 1145.39 3196.56 1165.6 3209.09 1180.95C3221.63 1196.3 3237.92 1203.98 3257.97 1203.98Z" fill="#FF0178"/>
</g>
<defs>
<clipPath id="clip0_418_3546">
<rect width="3528" height="1375" fill="white"/>
</clipPath>
</defs>
</svg>
